<svg width="35" height="34" viewBox="0 0 35 34" fill="none" xmlns="http://www.w3.org/2000/svg">
<path d="M4.92328 24.0398H17.9236C21.2728 24.0398 23.853 21.4887 23.853 18.1835C23.853 14.8617 21.2006 12.3694 17.6334 12.3544C16.3003 9.80951 13.8944 8.18811 10.8644 8.18811C6.96726 8.18811 3.68226 11.1771 3.33492 15.0916C1.29726 15.683 0 17.4021 0 19.5152C0 22.1993 1.99828 24.0398 4.92328 24.0398Z" fill="white"/>
<path d="M25.331 17.283C27.0135 16.1323 28.0598 14.3426 28.0598 12.2705C28.0598 9.01828 25.4596 6.40101 22.2075 6.40101C20.0674 6.40101 18.2064 7.55578 17.2359 9.23062C17.7386 9.75047 18.1689 10.3064 18.5268 10.9987C22.3413 11.292 24.9386 13.7302 25.331 17.283ZM15.2482 6.81843C15.6686 7.23679 16.3542 7.2314 16.7512 6.82265C17.1503 6.4139 17.1557 5.7518 16.747 5.33883L15.0224 3.60586C14.6179 3.18539 13.9432 3.19922 13.5365 3.60586C13.1278 4.01461 13.1224 4.69054 13.5407 5.09929L15.2482 6.81843ZM22.2032 4.54828C22.7887 4.54828 23.2603 4.06289 23.2603 3.48703V1.06125C23.2603 0.48328 22.7887 0 22.2032 0C21.6178 0 21.1462 0.48328 21.1462 1.06125V3.48703C21.1462 4.06289 21.6178 4.54828 22.2032 4.54828ZM27.6574 6.82476C28.0544 7.23351 28.7421 7.23679 29.1604 6.82054L30.8796 5.10351C31.2904 4.69476 31.2904 4.01672 30.8817 3.60797C30.475 3.20133 29.8087 3.19383 29.3978 3.6143L27.6595 5.33883C27.2486 5.74547 27.2582 6.41601 27.6574 6.82476ZM30.9674 13.3275H33.4049C33.9829 13.3275 34.4566 12.858 34.4566 12.2726C34.4566 11.6892 33.9829 11.2134 33.4049 11.2134H30.9674C30.4012 11.2134 29.9062 11.6892 29.9062 12.2726C29.9062 12.858 30.4012 13.3275 30.9674 13.3275ZM29.3957 20.9543C29.8045 21.3651 30.4708 21.3576 30.8796 20.951C31.2883 20.5423 31.282 19.8684 30.8753 19.4651L29.1412 17.7438C28.7346 17.3426 28.0619 17.3372 27.6532 17.7438C27.2465 18.143 27.2507 18.8285 27.6595 19.2351L29.3957 20.9543Z" fill="#F8D74D"/>
<path d="M4.96809 29.7377L6.47676 27.1263C6.70035 26.7419 6.59277 26.2917 6.21168 26.066C5.82098 25.8499 5.39301 25.9797 5.1652 26.3629L3.64481 29.0032C3.43293 29.3608 3.5384 29.8165 3.9195 30.0326C4.29848 30.2486 4.7541 30.1146 4.96809 29.7377ZM8.64449 33.0382L10.1532 30.4172C10.3768 30.0424 10.2596 29.5826 9.88809 29.3665C9.49739 29.1408 9.07153 29.2706 8.84161 29.6634L7.32332 32.294C7.10934 32.6592 7.21481 33.1073 7.5959 33.333C7.97699 33.5395 8.43051 33.4054 8.64449 33.0382ZM14.2962 29.7281L15.807 27.1167C16.0306 26.7323 15.9113 26.2821 15.5302 26.0564C15.1491 25.8403 14.7233 25.9701 14.4933 26.3533L12.9751 28.9936C12.7611 29.3512 12.8569 29.8069 13.2476 30.0229C13.6287 30.239 14.0822 30.105 14.2962 29.7281ZM17.963 33.0286L19.4834 30.4076C19.707 30.0328 19.5877 29.5729 19.2087 29.3569C18.8276 29.1312 18.3997 29.261 18.1623 29.6538L16.6419 32.2844C16.4279 32.6496 16.5333 33.0977 16.924 33.3234C17.2955 33.5299 17.7587 33.3937 17.963 33.0286Z" fill="#87CFFB"/>
</svg>
