<svg width="28" height="28" viewBox="0 0 28 28" fill="none" xmlns="http://www.w3.org/2000/svg">
<path d="M3.1925 10.2319C4.88 9.70333 6.62821 9.43052 8.29227 9.43052C10.4338 9.43052 12.0221 9.77364 14.0591 9.77364C16.2022 9.77364 17.5801 8.3081 17.5801 6.38365C17.5801 4.42498 16.0794 3.00537 14.2114 3.00537C12.8649 3.00537 11.6593 3.8449 11.1376 4.98139C10.9206 5.41873 11.0077 5.91466 11.4538 6.15513C11.8794 6.38271 12.4018 6.24232 12.6774 5.72716C12.9289 5.16747 13.528 4.73458 14.2114 4.73458C15.1377 4.73458 15.8509 5.3763 15.8509 6.38365C15.8509 7.3931 15.1527 8.05404 14.0591 8.05404C12.1348 8.05404 10.5125 7.70881 8.29227 7.70881C6.38633 7.70881 4.43797 8.04232 2.67102 8.58678C2.13032 8.74006 1.90485 9.21467 2.03681 9.67216C2.17087 10.1414 2.61454 10.399 3.1925 10.2319ZM21.5691 15.8449C24.346 15.8449 26.3239 14.0662 26.3239 11.5877C26.3239 9.14857 24.4482 7.36357 22.0998 7.36357C20.0124 7.36357 18.402 8.79584 18.0533 10.702C17.9471 11.2343 18.2145 11.6843 18.6786 11.7808C19.1628 11.8816 19.6137 11.5994 19.7455 11.0044C19.9616 9.86036 20.9431 9.08317 22.0998 9.08317C23.4852 9.08317 24.5947 10.1116 24.5947 11.5877C24.5947 13.0894 23.4043 14.1253 21.5691 14.1253C18.0055 14.1253 14.1141 12.0862 9.41821 12.0862C6.99571 12.0862 4.76938 12.4708 2.66891 13.1953C2.13782 13.3837 1.90485 13.8445 2.03681 14.2999C2.17298 14.7712 2.63258 15.0384 3.19672 14.8437C5.12586 14.1276 7.12438 13.8176 9.41821 13.8176C14.0708 13.8176 17.582 15.8449 21.5691 15.8449ZM14.0708 24.2184C15.9345 24.2184 17.3691 22.8298 17.3691 20.8732C17.3691 18.0443 14.4795 16.4637 9.21313 16.4637C7.03766 16.4637 4.67797 16.8813 2.66891 17.561C2.13782 17.7494 1.90485 18.2102 2.03681 18.6635C2.17298 19.1348 2.63258 19.4041 3.19672 19.2094C5.05368 18.5477 7.11852 18.1929 9.21313 18.1929C13.3911 18.1929 15.6495 19.2297 15.6495 20.8732C15.6495 21.8805 14.9523 22.4988 14.0708 22.4988C13.2209 22.4988 12.688 21.9326 12.507 21.022C12.3903 20.5441 11.998 20.1956 11.4624 20.2793C10.9056 20.363 10.6883 20.8715 10.8092 21.3984C11.094 22.983 12.3242 24.2184 14.0708 24.2184Z" fill="white"/>
</svg>
