<svg width="35" height="35" viewBox="0 0 35 35" fill="none" xmlns="http://www.w3.org/2000/svg">
<path d="M4.93078 24.669H17.9311C21.2707 24.669 23.853 22.1178 23.853 18.8126C23.853 15.4908 21.1964 12.9985 17.6313 12.9835C16.2961 10.4387 13.8923 8.81726 10.8602 8.81726C6.96515 8.81726 3.68015 11.8062 3.33281 15.7208C1.30476 16.3121 0 18.0312 0 20.1444C0 22.8284 2.00578 24.669 4.93078 24.669Z" fill="white"/>
<path d="M25.331 17.9122C27.0135 16.7614 28.0598 14.9717 28.0598 12.8996C28.0598 9.64743 25.4596 7.03016 22.2075 7.03016C20.0674 7.03016 18.2064 8.18493 17.2359 9.85977C17.7386 10.3796 18.1689 10.9355 18.5268 11.6279C22.3413 11.9211 24.9386 14.3593 25.331 17.9122ZM15.2482 7.44758C15.6686 7.86594 16.3542 7.86055 16.7512 7.4518C17.1503 7.04305 17.1557 6.38095 16.747 5.96798L15.0224 4.23501C14.6179 3.81454 13.9432 3.82837 13.5365 4.23501C13.1278 4.64376 13.1224 5.31969 13.5407 5.72844L15.2482 7.44758ZM22.2032 5.17743C22.7887 5.17743 23.2603 4.69204 23.2603 4.11618V1.69039C23.2603 1.11243 22.7887 0.62915 22.2032 0.62915C21.6178 0.62915 21.1462 1.11243 21.1462 1.69039V4.11618C21.1462 4.69204 21.6178 5.17743 22.2032 5.17743ZM27.6574 7.45391C28.0544 7.86266 28.7421 7.86594 29.1604 7.44969L30.8796 5.73266C31.2904 5.32391 31.2904 4.64586 30.8817 4.23712C30.475 3.83048 29.8087 3.82298 29.3978 4.24344L27.6595 5.96798C27.2486 6.37462 27.2582 7.04516 27.6574 7.45391ZM30.9674 13.9566H33.4049C33.9829 13.9566 34.4566 13.4872 34.4566 12.9017C34.4566 12.3184 33.9829 11.8426 33.4049 11.8426H30.9674C30.4012 11.8426 29.9062 12.3184 29.9062 12.9017C29.9062 13.4872 30.4012 13.9566 30.9674 13.9566ZM29.3957 21.5834C29.8045 21.9943 30.4708 21.9868 30.8796 21.5801C31.2883 21.1714 31.282 20.4976 30.8753 20.0942L29.1412 18.373C28.7346 17.9717 28.0619 17.9663 27.6532 18.373C27.2465 18.7721 27.2507 19.4576 27.6595 19.8643L29.3957 21.5834Z" fill="#F8D74D"/>
<path d="M14.9449 28.9273H12.273L12.2348 29.4987L13.5813 26.9401C13.7219 26.6844 13.6164 26.4926 13.3565 26.4926H10.709C10.3788 26.4926 10.2712 26.6098 10.1657 26.8484L8.63835 30.3197C8.52116 30.601 8.64585 30.781 8.94303 30.781H11.1229L11.25 30.0811L9.4317 34.459C9.36139 34.6231 9.39655 34.7445 9.51163 34.7893C9.6171 34.8361 9.74811 34.8031 9.8578 34.6742L15.1207 29.4983C15.3731 29.2543 15.2889 28.9273 14.9449 28.9273Z" fill="white"/>
</svg>
