<svg width="32" height="31" viewBox="0 0 32 31" fill="none" xmlns="http://www.w3.org/2000/svg">
<path d="M25.4587 14.236C29.0854 13.5134 31.2609 10.5422 31.2609 8.57278C31.2609 8.10849 31.0478 7.7581 30.6623 7.7581C30.0745 7.7581 29.2 8.50177 27.5575 8.50388C24.7181 8.51021 22.9387 6.78638 22.9387 4.19208C22.9387 2.60185 23.737 1.45786 23.737 0.811458C23.737 0.439738 23.4846 0.185208 23.0116 0.208648C20.8795 0.284348 18.037 2.67638 17.3896 5.85474C17.7867 6.22833 18.1593 6.717 18.4596 7.3613C22.3328 7.63224 25.3124 10.5717 25.4587 14.236Z" fill="white"/>
<path d="M4.93078 20.4675H17.9311C21.2707 20.4675 23.8509 17.9163 23.8509 14.6091C23.8509 11.2873 21.1964 8.79496 17.6313 8.77996C16.2961 6.23723 13.8923 4.61371 10.8602 4.61371C6.96515 4.61371 3.68015 7.6027 3.33281 11.5193C1.30476 12.1085 0 13.8298 0 15.9429C0 18.627 2.00578 20.4675 4.93078 20.4675ZM14.9447 24.7259H12.2728L12.2346 25.2952L13.5811 22.7386C13.7217 22.4808 13.6162 22.2912 13.3563 22.2912H10.7088C10.3786 22.2912 10.271 22.4084 10.1655 22.6448L8.63813 26.1183C8.52094 26.3995 8.64563 26.5795 8.94281 26.5795H11.1227L11.2498 25.8776L9.43148 30.2576C9.36117 30.4216 9.39633 30.5409 9.51141 30.5878C9.61688 30.6347 9.74789 30.5995 9.85758 30.4727L15.1205 25.2968C15.3729 25.0528 15.2887 24.7259 14.9447 24.7259Z" fill="white"/>
</svg>
