<svg width="28" height="28" viewBox="0 0 28 28" fill="none" xmlns="http://www.w3.org/2000/svg">
<path d="M19.8834 13.4979C19.8834 10.0198 17.0048 7.13156 13.5234 7.13156C10.042 7.13156 7.16133 10.0198 7.16133 13.4979C7.16133 14.2784 7.32774 15.03 7.59657 15.7006H19.4407C19.7191 15.03 19.8834 14.2784 19.8834 13.4979ZM1.12101 14.208H3.83719C4.48453 14.208 4.97742 13.7461 4.96781 13.1702C4.9582 12.6061 4.48453 12.1345 3.83719 12.1345H1.12101C0.477889 12.1345 0 12.5965 0 13.1702C0 13.7461 0.479998 14.208 1.12101 14.208ZM7.47023 7.47023C7.86726 7.06149 7.86516 6.39305 7.40836 5.93625L5.48531 4.01742C5.0264 3.55641 4.36969 3.56391 3.96094 3.96305C3.5543 4.36008 3.5543 5.02851 4.0132 5.48953L5.93625 7.40625C6.39305 7.86305 7.0711 7.87898 7.47023 7.47023ZM13.5234 4.96992C14.0972 4.96031 14.5612 4.47281 14.5612 3.8393V1.12101C14.5612 0.47578 14.0972 0 13.5234 0C12.9476 0 12.4856 0.47578 12.4856 1.12101V3.8393C12.4856 4.47281 12.9476 4.97953 13.5234 4.96992ZM19.5766 7.47023C19.9758 7.86937 20.6538 7.86305 21.1106 7.40625L23.0337 5.48953C23.4926 5.02851 23.483 4.36969 23.0742 3.96305C22.6868 3.5543 22.0205 3.55641 21.552 4.01742L19.6289 5.93625C19.1817 6.39305 19.1679 7.0732 19.5766 7.47023ZM23.2097 14.208H25.9259C26.5711 14.2177 27.0469 13.7461 27.0469 13.1702C27.0469 12.6061 26.5711 12.1345 25.9259 12.1345H23.2097C22.5645 12.1345 22.0673 12.5965 22.0791 13.1702C22.0887 13.7461 22.5666 14.208 23.2097 14.208Z" fill="#FAD64D"/>
<path d="M2.56898 18.7402H26.2453C26.6934 18.7402 27.0469 18.4027 27.0469 17.9534C27.0469 17.5041 26.6934 17.1666 26.2453 17.1666H2.56898C2.11336 17.1666 1.76953 17.5041 1.76953 17.9534C1.76953 18.4027 2.11336 18.7402 2.56898 18.7402ZM0.80156 23.2498H24.4758C24.9239 23.2498 25.2773 22.9027 25.2773 22.4534C25.2773 22.0041 24.9239 21.6666 24.4758 21.6666H0.80156C0.353436 21.6666 0 22.0041 0 22.4534C0 22.9027 0.353436 23.2498 0.80156 23.2498ZM2.56898 27.7498H26.2453C26.6934 27.7498 27.0469 27.4144 27.0469 26.963C27.0469 26.5041 26.6934 26.1687 26.2453 26.1687H2.56898C2.11336 26.1687 1.76953 26.5041 1.76953 26.963C1.76953 27.4144 2.11336 27.7498 2.56898 27.7498Z" fill="white"/>
</svg>
