<svg width="32" height="28" viewBox="0 0 32 28" fill="none" xmlns="http://www.w3.org/2000/svg">
<path d="M25.3805 18.0375C29.0072 17.3149 31.1827 14.3341 31.1827 12.3743C31.1827 11.8983 30.9772 11.5596 30.5937 11.5596C29.9942 11.5596 29.1197 12.3033 27.4772 12.3054C24.6495 12.3117 22.868 10.5879 22.868 7.99358C22.868 6.40335 23.6588 5.25936 23.6588 4.61296C23.6588 4.24124 23.4064 3.98671 22.9334 4.00054C20.7992 4.08585 17.9663 6.47788 17.3115 9.65624C17.7064 10.0298 18.079 10.5185 18.3889 11.1532C22.2547 11.4241 25.2322 14.3733 25.3805 18.0375Z" fill="white"/>
<path d="M4.92867 24.2979H17.929C21.2782 24.2979 23.8605 21.7467 23.8605 18.4394C23.8605 15.1197 21.206 12.6253 17.6388 12.6124C16.3057 10.0676 13.8923 8.43445 10.8698 8.43445C6.96304 8.43445 3.68976 11.4352 3.3307 15.3497C1.30266 15.941 0 17.6601 0 19.7733C0 22.4573 2.00367 24.2979 4.92867 24.2979Z" fill="white"/>
</svg>
