<svg width="28" height="29" viewBox="0 0 28 29" fill="none" xmlns="http://www.w3.org/2000/svg">
<path d="M7.28113 22.8701L8.00934 21.5885C8.23504 21.2116 8.12324 20.7539 7.74215 20.5282C7.36317 20.3121 6.92559 20.4494 6.69778 20.8251L5.95786 22.1355C5.75559 22.4911 5.84184 22.9392 6.23254 23.1649C6.61153 23.381 7.06715 23.2448 7.28113 22.8701ZM12.3905 24.663L14.1595 21.6023C14.3735 21.2158 14.2659 20.7677 13.8944 20.5495C13.5037 20.3238 13.0662 20.4558 12.848 20.8486L11.0693 23.9285C10.8553 24.2937 10.9608 24.7418 11.3515 24.9579C11.723 25.174 12.1861 25.0399 12.3905 24.663ZM19.5623 22.9169L20.2906 21.6354C20.5163 21.2585 20.4044 20.8008 20.0234 20.5751C19.6423 20.359 19.2068 20.4963 18.9769 20.872L18.2391 22.1824C18.0368 22.538 18.1231 22.9861 18.5117 23.2118C18.8928 23.4279 19.3483 23.2821 19.5623 22.9169ZM5.08668 26.4825C5.80551 26.4825 6.40082 25.8754 6.40082 25.1449C6.40082 24.4399 5.80551 23.8425 5.08668 23.8425C4.35825 23.8425 3.76294 24.4399 3.76294 25.1449C3.76294 25.8754 4.35825 26.4825 5.08668 26.4825ZM10.196 28.2754C10.9148 28.2754 11.5219 27.6705 11.5219 26.9379C11.5219 26.2329 10.9244 25.6354 10.196 25.6354C9.47934 25.6354 8.88192 26.2329 8.88192 26.9379C8.88192 27.6705 9.47934 28.2754 10.196 28.2754ZM17.368 26.5294C18.0868 26.5294 18.682 25.9223 18.682 25.1918C18.682 24.4847 18.0868 23.8797 17.368 23.8797C16.6395 23.8797 16.0441 24.4847 16.0441 25.1918C16.0441 25.9223 16.6395 26.5294 17.368 26.5294Z" fill="#87CFFB"/>
<path d="M5.67866 18.6407H20.2786C24.2004 18.6407 27.1336 15.6594 27.1336 11.9488C27.1336 8.1283 24.0593 5.29448 20.0318 5.29448C18.5923 2.46322 15.9178 0.549316 12.3666 0.549316C7.87593 0.549316 4.23257 4.00424 3.79101 8.36455C1.63828 9.02361 0 10.8972 0 13.4225C0 16.3264 2.12531 18.6407 5.67866 18.6407Z" fill="white"/>
</svg>
