<svg width="32" height="31" viewBox="0 0 32 31" fill="none" xmlns="http://www.w3.org/2000/svg">
<path d="M4.86651 26.4347L6.3869 23.8233C6.6105 23.4368 6.49331 22.9887 6.11222 22.7705C5.73113 22.5448 5.30316 22.6746 5.06574 23.0675L3.54535 25.7002C3.33136 26.0654 3.43683 26.5114 3.82753 26.7392C4.19902 26.9457 4.65464 26.8095 4.86651 26.4347ZM8.54503 29.7331L10.0537 27.1121C10.2869 26.7373 10.1697 26.2871 9.78862 26.0614C9.40753 25.8453 8.97956 25.9751 8.74214 26.3583L7.22175 28.9986C7.00988 29.3562 7.11535 29.8022 7.50605 30.0279C7.87542 30.244 8.33105 30.11 8.54503 29.7331ZM14.1967 26.4251L15.7054 23.8137C15.929 23.4272 15.8118 22.977 15.4403 22.7609C15.0496 22.5352 14.6216 22.665 14.3938 23.0579L12.8734 25.6906C12.6616 26.0557 12.7574 26.5018 13.1481 26.7275C13.5271 26.9339 13.9827 26.7999 14.1967 26.4251ZM17.8731 29.7235L19.3839 27.1025C19.6075 26.7277 19.4882 26.2775 19.1071 26.0518C18.726 25.8357 18.3002 25.9655 18.0702 26.3487L16.552 28.9889C16.338 29.3466 16.4338 29.7926 16.8245 30.0183C17.2056 30.2344 17.6591 30.1003 17.8731 29.7235Z" fill="#87CFFB"/>
<path d="M25.4587 14.5245C29.0854 13.8019 31.2609 10.8308 31.2609 8.86879C31.2609 8.39488 31.0478 8.0466 30.6623 8.0466C30.0745 8.0466 29.2 8.79027 27.5575 8.79238C24.7181 8.79871 22.9387 7.08449 22.9387 4.48058C22.9387 2.89996 23.737 1.75598 23.737 1.09996C23.737 0.726129 23.4846 0.483317 23.0116 0.495035C20.8795 0.582457 18.037 2.96488 17.3896 6.14324C17.7867 6.51683 18.1593 7.0055 18.4596 7.6498C22.3328 7.92074 25.3124 10.8699 25.4587 14.5245Z" fill="white"/>
<path d="M4.93078 20.7561H17.9311C21.2707 20.7561 23.8509 18.2145 23.8509 14.9072C23.8509 11.5758 21.1964 9.08347 17.6313 9.06847C16.2961 6.53534 13.8923 4.90222 10.8602 4.90222C6.96515 4.90222 3.68015 7.90081 3.33281 11.8079C1.30476 12.3971 0 14.1183 0 16.2314C0 18.9155 2.00578 20.7561 4.93078 20.7561Z" fill="white"/>
</svg>
