<svg width="28" height="30" viewBox="0 0 28 30" fill="none" xmlns="http://www.w3.org/2000/svg">
<path d="M4.94016 27.4303C5.1743 27.4303 5.33719 27.2164 5.31493 26.9822L5.2118 25.8636L6.13876 26.509C6.3218 26.6473 6.60188 26.6025 6.71579 26.4057C6.84141 26.2109 6.76055 25.9266 6.51891 25.8169L5.5111 25.3479L6.53063 24.8651C6.76266 24.7554 6.83602 24.4988 6.72961 24.2923C6.62321 24.0879 6.31969 24.0486 6.13454 24.1868L5.21391 24.8356L5.32454 23.7232C5.3543 23.4795 5.1743 23.2751 4.94016 23.2751C4.67719 23.2751 4.5143 23.4795 4.53235 23.7232L4.63126 24.8356L3.70313 24.1847C3.52008 24.0464 3.25501 24.0783 3.12938 24.2923C3.01548 24.4988 3.07712 24.7575 3.32087 24.8651L4.3329 25.3458L3.31876 25.8211C3.07712 25.9287 3.00376 26.2013 3.12188 26.4057C3.24001 26.6218 3.52008 26.6569 3.70313 26.5186L4.63126 25.8774L4.54407 26.9822C4.52391 27.2164 4.67719 27.4303 4.94016 27.4303ZM10.5806 29.2233C10.8223 29.2233 10.9776 29.0114 10.9554 28.7752L10.8619 27.6661L11.7771 28.302C11.9719 28.4403 12.2402 28.3955 12.3659 28.2007C12.4915 28.0039 12.4106 27.7196 12.1669 27.612L11.1612 27.1505L12.1807 26.6698C12.4127 26.558 12.4861 26.2918 12.3776 26.0853C12.2637 25.8809 11.9698 25.8415 11.775 25.9798L10.864 26.6382L10.965 25.5183C10.9948 25.2725 10.8223 25.0681 10.5806 25.0681C10.3177 25.0681 10.1623 25.2725 10.1824 25.5183L10.2717 26.6382L9.35321 25.9777C9.16055 25.8394 8.89547 25.8713 8.76985 26.0853C8.65383 26.2918 8.71758 26.5505 8.96133 26.6698L9.98297 27.1484L8.95922 27.6237C8.71758 27.7313 8.64422 27.9943 8.76235 28.2007C8.88047 28.4147 9.16055 28.4499 9.35321 28.3116L10.2717 27.6704L10.192 28.7752C10.174 29.0114 10.3177 29.2233 10.5806 29.2233ZM17.2699 27.4772C17.5041 27.4772 17.6691 27.2632 17.6468 27.0195L17.5437 25.9083L18.4685 26.5559C18.6516 26.6942 18.922 26.6494 19.0476 26.4525C19.1712 26.2578 19.0924 25.9714 18.8487 25.8638L17.8409 25.3948L18.8604 24.912C19.0945 24.8023 19.1679 24.5339 19.0594 24.3392C18.9434 24.1348 18.6494 24.0954 18.4664 24.2337L17.5458 24.8825L17.6564 23.7701C17.6862 23.5146 17.5041 23.3124 17.2699 23.3124C17.0091 23.3124 16.8441 23.5146 16.8642 23.7701L16.961 24.8825L16.035 24.2295C15.8498 24.0933 15.5848 24.1252 15.4591 24.3392C15.3452 24.5339 15.409 24.8044 15.6506 24.912L16.6627 25.3927L15.6485 25.8659C15.409 25.9756 15.3356 26.2461 15.4537 26.4525C15.5698 26.659 15.8498 26.6942 16.035 26.5559L16.961 25.9243L16.8738 27.0195C16.8537 27.2632 17.0091 27.4772 17.2699 27.4772Z" fill="white"/>
<path d="M7.28112 22.344L8.00933 21.0625C8.23503 20.6856 8.12323 20.2279 7.74214 20.0022C7.36316 19.7861 6.92558 19.9234 6.69777 20.2991L5.95785 21.6095C5.75558 21.9651 5.84183 22.4132 6.23253 22.6389C6.61152 22.855 7.06714 22.7188 7.28112 22.344ZM12.3905 24.137L14.1595 21.0763C14.3735 20.6898 14.2659 20.2417 13.8944 20.0235C13.5037 19.7978 13.0662 19.9297 12.848 20.3226L11.0693 23.4025C10.8553 23.7676 10.9608 24.2158 11.3515 24.4319C11.723 24.6479 12.1861 24.5139 12.3905 24.137ZM19.5623 22.3909L20.2905 21.1094C20.5162 20.7325 20.4044 20.2747 20.0234 20.049C19.6423 19.833 19.2068 19.9703 18.9769 20.346L18.2391 21.6564C18.0368 22.0119 18.123 22.4601 18.5116 22.6858C18.8927 22.9019 19.3483 22.7561 19.5623 22.3909Z" fill="white"/>
<path d="M5.67866 18.1147H20.2786C24.2004 18.1147 27.1336 15.1335 27.1336 11.4229C27.1336 7.6023 24.0593 4.76847 20.0318 4.76847C18.5923 1.93722 15.9178 0.0233154 12.3666 0.0233154C7.87593 0.0233154 4.23257 3.47823 3.79101 7.83854C1.63828 8.49765 0 10.3712 0 12.8966C0 15.8005 2.12531 18.1147 5.67866 18.1147Z" fill="white"/>
</svg>
