<svg width="28" height="28" viewBox="0 0 28 28" fill="none" xmlns="http://www.w3.org/2000/svg">
<path d="M14.034 7.9007C10.6633 7.9007 7.87609 10.6879 7.87609 14.0683C7.87609 17.439 10.6633 20.2262 14.034 20.2262C17.3952 20.2262 20.1824 17.439 20.1824 14.0683C20.1824 10.6879 17.3952 7.9007 14.034 7.9007ZM15.2172 2.18312C15.2172 1.54047 14.6788 1 14.034 1C13.401 1 12.8626 1.54047 12.8626 2.18312V4.57023C12.8626 5.20538 13.401 5.74374 14.034 5.74374C14.6788 5.74374 15.2172 5.20538 15.2172 4.57023V2.18312ZM19.9033 6.55094C19.4596 7.0021 19.4617 7.7521 19.9096 8.2096C20.3608 8.65327 21.1204 8.65866 21.5758 8.20327L23.267 6.5078C23.7203 6.05663 23.7182 5.28742 23.2607 4.83953C22.817 4.38836 22.0574 4.39258 21.6137 4.84585L19.9033 6.55094ZM25.8967 15.2397C26.5393 15.2397 27.0798 14.7013 27.0798 14.0683C27.0798 13.4331 26.5393 12.8948 25.8967 12.8948H23.5192C22.884 12.8948 22.3457 13.4331 22.3457 14.0683C22.3457 14.7013 22.884 15.2397 23.5192 15.2397H25.8967ZM21.5619 19.9387C21.1183 19.4854 20.3587 19.4896 19.9033 19.945C19.4596 20.3887 19.4617 21.1461 19.9096 21.6015L21.6222 23.3045C22.0658 23.7461 22.8254 23.7343 23.2733 23.2865C23.7245 22.8353 23.7224 22.0757 23.2649 21.6299L21.5619 19.9387ZM15.2172 23.5642C15.2172 22.9215 14.6788 22.3832 14.034 22.3832C13.401 22.3832 12.8626 22.9215 12.8626 23.5642V25.9513C12.8626 26.5865 13.401 27.1269 14.034 27.1269C14.6788 27.1269 15.2172 26.5865 15.2172 25.9513V23.5642ZM4.8032 21.6203C4.35531 22.0661 4.3532 22.8257 4.78515 23.2769C5.23304 23.7247 6.00225 23.7365 6.45553 23.2949L8.1489 21.6015C8.60639 21.1558 8.6085 20.3983 8.16694 19.945C7.71905 19.4992 6.94984 19.495 6.49656 19.9387L4.8032 21.6203ZM2.1714 12.8948C1.53836 12.8948 1 13.4331 1 14.0683C1 14.7013 1.53836 15.2397 2.1714 15.2397H4.5489C5.19367 15.2397 5.73413 14.7013 5.73413 14.0683C5.73413 13.4331 5.19367 12.8948 4.5489 12.8948H2.1714ZM6.49234 8.20327C6.94773 8.64905 7.70733 8.65327 8.1489 8.2096C8.60639 7.77132 8.6085 6.9925 8.16694 6.55094L6.47358 4.84585C6.03952 4.40219 5.27031 4.38836 4.81703 4.83953C4.37125 5.28742 4.36703 6.05663 4.80109 6.49819L6.49234 8.20327Z" fill="#FAD64D"/>
</svg>
