<svg width="28" height="28" viewBox="0 0 28 28" fill="none" xmlns="http://www.w3.org/2000/svg">
<path d="M13.54 26.0244C14.1231 26.0244 14.4763 25.6147 14.4763 25.0348V22.6226L16.262 23.6846C16.7251 23.9823 17.2337 23.9555 17.5262 23.484C17.7772 23.0806 17.6631 22.5687 17.1714 22.2826L14.4763 20.7174V19.2692L14.225 15.2206L17.63 17.453L18.8907 18.1723L18.8989 21.2872C18.8978 21.8523 19.2828 22.2261 19.7457 22.2092C20.3066 22.1923 20.5876 21.7583 20.5517 21.2112L20.5234 19.1164L22.6222 20.3358C23.1404 20.6391 23.6478 20.5072 23.9256 20.022C24.2033 19.5219 24.0554 18.9952 23.5585 18.7133L21.4618 17.5013L23.2834 16.478C23.7707 16.2265 24.0024 15.7754 23.7416 15.2902C23.4988 14.8667 23.0113 14.7212 22.5207 14.998L19.8196 16.5477L18.5567 15.8284L14.8876 14.0122L18.5664 12.1939L19.81 11.4671L22.5111 13.0189C23.0017 13.2978 23.518 13.148 23.7533 12.7299C24.0046 12.2511 23.7728 11.7903 23.2834 11.5367L21.4618 10.523L23.5585 9.31108C24.0671 9.0153 24.215 8.5046 23.9373 8.00234C23.6574 7.52141 23.1287 7.38734 22.6318 7.68851L20.5234 8.88875L20.5421 6.80562C20.5801 6.24476 20.3066 5.82992 19.7575 5.81515C19.2753 5.80039 18.8978 6.16461 18.8989 6.72757L18.8811 9.83703L17.63 10.5659L14.225 12.808L14.4763 8.74554V7.29734L17.1714 5.73968C17.6631 5.44601 17.7751 4.94375 17.5262 4.53078C17.2379 4.06883 16.7251 4.0325 16.262 4.33976L14.4763 5.40172V2.97992C14.4763 2.40008 14.1231 2 13.54 2C12.9803 2 12.6132 2.40218 12.6132 2.97992V5.40172L10.7987 4.33976C10.3335 4.0325 9.8462 4.06883 9.54199 4.53078C9.29308 4.94375 9.41683 5.44601 9.90855 5.73007L12.6132 7.29734V8.74554L12.8549 12.8101L9.44777 10.5659L8.18917 9.83492L8.18097 6.72757C8.18003 6.16461 7.80456 5.80039 7.33207 5.81515C6.77332 5.82992 6.4923 6.25648 6.52605 6.80351L6.55652 8.88875L4.44808 7.68851C3.96082 7.39695 3.41285 7.52141 3.14262 8.00234C2.85527 8.5046 3.01277 9.02913 3.51926 9.31108L5.60848 10.523L3.79652 11.5367C3.30715 11.7903 3.07746 12.2244 3.32871 12.732C3.55441 13.1576 4.06863 13.2978 4.56878 13.0189L7.25613 11.4767L8.51144 12.1939L12.1827 14.0122L8.51144 15.8284L7.25824 16.5573L4.55917 14.9959C4.06863 14.7148 3.56191 14.8667 3.34582 15.2827C3.08496 15.7925 3.30715 16.2244 3.79652 16.478L5.61809 17.5013L3.52136 18.7133C3.02449 18.9952 2.86277 19.5315 3.14262 20.0124C3.43207 20.5168 3.95871 20.6295 4.44808 20.3358L6.55652 19.1356L6.52605 21.2091C6.4902 21.7583 6.77332 22.1944 7.32246 22.2092C7.79706 22.224 8.18003 21.8501 8.18097 21.2872L8.19878 18.1681L9.44777 17.4584L12.8549 15.2164L12.6132 19.2692V20.7174L9.90855 22.2826C9.41683 22.5687 9.29519 23.0806 9.54199 23.484C9.84198 23.9555 10.3335 23.9823 10.7987 23.6846L12.6132 22.613V25.0348C12.6132 25.6105 12.9803 26.0244 13.54 26.0244Z" fill="white"/>
</svg>
