<svg width="28" height="29" viewBox="0 0 28 29" fill="none" xmlns="http://www.w3.org/2000/svg">
<path d="M16.5538 22.8088H13.8029L13.7647 23.3994L15.1902 20.6678C15.3287 20.41 15.2232 20.2087 14.9633 20.2087H12.2136C11.8738 20.2087 11.7566 20.3258 11.6511 20.574L10.0258 24.2765C9.899 24.5673 10.0236 24.7452 10.3304 24.7452H12.5912L12.7161 24.0011L10.821 28.6042C10.7582 28.7587 10.7954 28.8876 10.9009 28.9344C11.0064 28.9813 11.1353 28.9462 11.2663 28.8194L16.7392 23.399C16.9916 23.1454 16.8979 22.8088 16.5538 22.8088Z" fill="white"/>
<path d="M5.67866 18.4801H20.2786C24.2004 18.4801 27.1336 15.4989 27.1336 11.7883C27.1336 7.96777 24.0593 5.13395 20.0318 5.13395C18.5923 2.30269 15.9178 0.388794 12.3666 0.388794C7.87593 0.388794 4.23257 3.84371 3.79101 8.20402C1.63828 8.86309 0 10.7366 0 13.262C0 16.1659 2.12531 18.4801 5.67866 18.4801Z" fill="white"/>
</svg>
