<svg width="28" height="28" viewBox="0 0 28 28" fill="none" xmlns="http://www.w3.org/2000/svg">
<path d="M12.4477 25.1456C16.7963 25.1456 20.3935 22.8801 21.9943 19.0994C22.2017 18.607 22.1804 18.1826 21.9293 17.9379C21.721 17.7283 21.3317 17.7007 20.919 17.8655C19.94 18.2669 18.7794 18.4882 17.4788 18.4882C12.2208 18.4882 8.7842 15.1516 8.7842 10.0139C8.7842 8.66225 9.05561 7.14444 9.48147 6.26413C9.71232 5.78015 9.70389 5.37257 9.48686 5.12788C9.25811 4.85976 8.83366 4.82249 8.3028 5.02992C4.54484 6.52288 2 10.4165 2 14.8132C2 20.7236 6.35679 25.1456 12.4477 25.1456Z" fill="white"/>
<path d="M21.4733 13.8335C21.7191 13.8335 21.8904 13.6643 21.9181 13.4067C22.3006 10.301 22.4403 10.2105 25.6055 9.70757C25.8811 9.6682 26.0483 9.5182 26.0483 9.27234C26.0483 9.02859 25.8811 8.86898 25.6566 8.8275C22.4574 8.20547 22.3006 8.22984 21.9181 5.12835C21.8904 4.87078 21.7191 4.70156 21.4733 4.70156C21.237 4.70156 21.0657 4.87078 21.0284 5.11664C20.6321 8.27765 20.5233 8.37679 17.292 8.8275C17.0696 8.85515 16.9004 9.02859 16.9004 9.27234C16.9004 9.50648 17.0675 9.66609 17.2899 9.70757C20.5297 10.3392 20.6225 10.3266 21.0284 13.4301C21.0657 13.6643 21.2412 13.8335 21.4733 13.8335ZM15.8485 5.75226C16.0039 5.75226 16.089 5.65758 16.1145 5.5118C16.4609 3.56742 16.4513 3.52898 18.4735 3.1507C18.6256 3.12304 18.7278 3.03047 18.7278 2.87508C18.7278 2.7218 18.6256 2.62711 18.4798 2.60156C16.4471 2.19141 16.5026 2.15508 16.1145 0.242577C16.089 0.094687 16.0039 0 15.8485 0C15.6931 0 15.5984 0.094687 15.5729 0.240468C15.1901 2.17195 15.2478 2.21461 13.2193 2.60156C13.066 2.625 12.9692 2.7218 12.9692 2.87508C12.9692 3.03047 13.0639 3.12304 13.2172 3.1507C15.2478 3.56086 15.2244 3.57797 15.5729 5.51391C15.5984 5.65758 15.6931 5.75226 15.8485 5.75226Z" fill="white"/>
</svg>
