<svg width="28" height="28" viewBox="0 0 28 28" fill="none" xmlns="http://www.w3.org/2000/svg">
<path d="M6.034 24.0264L7.54478 21.4054C7.77798 21.0285 7.65868 20.5804 7.2797 20.3547C6.89861 20.1386 6.47064 20.2588 6.23322 20.6516L4.71283 23.2919C4.49884 23.6474 4.60431 24.0955 4.99501 24.3212C5.3665 24.5373 5.82001 24.3915 6.034 24.0264ZM8.77079 27.3599L12.213 21.3936C12.427 21.0168 12.3291 20.5783 11.9576 20.3622C11.5861 20.1344 11.1272 20.2588 10.9111 20.6474L7.48806 26.5965C7.27408 26.9713 7.36994 27.4194 7.75103 27.6451C8.12251 27.8612 8.55681 27.7272 8.77079 27.3599ZM15.3642 24.0168L16.8729 21.3958C17.0965 21.0189 16.9793 20.5708 16.5982 20.3429C16.2171 20.1269 15.7891 20.2492 15.5613 20.642L14.0409 23.2822C13.8291 23.6378 13.9249 24.0838 14.3135 24.3116C14.6946 24.5277 15.1502 24.3819 15.3642 24.0168ZM18.0893 27.3503L21.5433 21.3819C21.7551 21.0072 21.6476 20.5686 21.2782 20.3504C20.9163 20.1247 20.467 20.2492 20.2413 20.6378L16.8066 26.5869C16.5947 26.9617 16.7002 27.4098 17.0716 27.6355C17.441 27.8516 17.8753 27.7251 18.0893 27.3503Z" fill="#87CFFB"/>
<path d="M5.67866 18.3775H20.2786C24.2004 18.3775 27.1336 15.3962 27.1336 11.6856C27.1336 7.86512 24.0593 5.03128 20.0318 5.03128C18.5923 2.20003 15.9178 0.286133 12.3666 0.286133C7.87593 0.286133 4.23257 3.74106 3.79101 8.10137C1.63828 8.76043 0 10.634 0 13.1594C0 16.0633 2.12531 18.3775 5.67866 18.3775Z" fill="white"/>
</svg>
