<svg width="35" height="28" viewBox="0 0 35 28" fill="none" xmlns="http://www.w3.org/2000/svg">
<path d="M4.95 25.0656H17.9482C21.3091 25.0656 23.899 22.5048 23.899 19.188C23.899 15.8566 21.2348 13.3546 17.6698 13.3396C16.3537 10.8449 13.9596 9.17334 10.8794 9.17334C6.97265 9.17334 3.68976 12.1719 3.33281 16.0886C1.34109 16.6682 0 18.3702 0 20.5218C0 23.1866 1.98656 25.0656 4.95 25.0656Z" fill="white"/>
<path d="M25.3816 18.283C27.0642 17.1344 28.1104 15.3426 28.1104 13.2726C28.1104 10.0204 25.5103 7.40312 22.2581 7.40312C20.118 7.40312 18.2571 8.55789 17.2865 10.2306C17.7893 10.7505 18.2196 11.316 18.5775 12.0105C22.3919 12.292 24.9893 14.7398 25.3816 18.283ZM15.2988 7.81843C15.7193 8.2389 16.4048 8.2314 16.8019 7.82265C17.201 7.41601 17.2064 6.7518 16.7976 6.33883L15.0731 4.60797C14.6686 4.19711 13.9938 4.19922 13.5872 4.60797C13.1784 5.01461 13.173 5.69054 13.5914 6.09929L15.2988 7.81843ZM22.2539 5.56C22.8394 5.56 23.3109 5.06289 23.3109 4.49664V2.06125C23.3109 1.48539 22.8394 1 22.2539 1C21.6684 1 21.1969 1.48539 21.1969 2.06125V4.49664C21.1969 5.06289 21.6684 5.56 22.2539 5.56ZM31.0181 14.3296H33.4535C34.0315 14.3296 34.5051 13.8601 34.5051 13.2747C34.5051 12.6988 34.0315 12.2155 33.4535 12.2155H31.0181C30.454 12.2155 29.9569 12.6988 29.9569 13.2747C29.9569 13.8601 30.454 14.3296 31.0181 14.3296ZM27.708 7.82476C28.1051 8.23351 28.7948 8.2389 29.2111 7.82054L30.9302 6.10351C31.3411 5.69687 31.3411 5.01672 30.9323 4.61008C30.5257 4.20133 29.8594 4.20344 29.4485 4.6143L27.7101 6.33883C27.2993 6.74758 27.3089 7.41812 27.708 7.82476ZM29.4464 21.9564C29.8572 22.3673 30.5236 22.3598 30.9302 21.951C31.339 21.5423 31.3326 20.8705 30.926 20.4672L29.1919 18.7459C28.7873 18.3447 28.1126 18.3372 27.7059 18.7459C27.2972 19.1526 27.3014 19.8285 27.7101 20.2373L29.4464 21.9564Z" fill="#F8D74D"/>
</svg>
