<svg width="28" height="28" viewBox="0 0 28 28" fill="none" xmlns="http://www.w3.org/2000/svg">
<path id="primary" d="M5.88112 11.1368C11.174 11.1368 13.9814 6.71883 18.8409 6.71883C19.9746 6.71883 20.9667 6.97242 22.1367 7.64156C22.6891 7.94812 23.2338 7.75852 23.5263 7.34367C23.872 6.84586 23.7925 6.12868 23.0814 5.71032C21.7446 4.94228 20.3578 4.57056 18.8409 4.57056C13.4615 4.57056 10.6734 8.99064 5.88112 8.99064C4.73784 8.99064 3.74573 8.73493 2.57573 8.06579C2.0212 7.75712 1.4744 7.95095 1.18612 8.37962C0.861751 8.87743 0.931592 9.59039 1.63307 9.99914C2.96784 10.7651 4.35464 11.1368 5.88112 11.1368ZM5.89284 17.4298C10.4301 17.4298 13.1957 14.0646 17.0639 13.2708C17.4904 12.4634 17.9266 11.6773 18.3532 10.872C13.188 11.1687 10.5681 15.2815 5.89284 15.2815C4.74956 15.2815 3.75956 15.0162 2.58744 14.347C2.04252 14.0384 1.48612 14.2322 1.20956 14.6609C0.875579 15.1587 0.943311 15.8716 1.64479 16.2804C2.97956 17.0463 4.37596 17.4298 5.89284 17.4298ZM5.88112 23.711C9.37589 23.711 11.8178 21.7115 14.5129 20.4405C14.4269 19.7878 14.5612 18.8051 14.8059 18.0082C11.7267 19.279 9.33136 21.5627 5.88112 21.5627C4.73784 21.5627 3.74573 21.307 2.57573 20.6283C2.0212 20.3196 1.4744 20.5134 1.18612 20.9421C0.861751 21.4399 0.931592 22.1625 1.63307 22.5616C2.96784 23.3372 4.35464 23.711 5.88112 23.711Z" fill="#454547"/>
<path id="secondary" d="M21.2742 25.2731C24.1436 25.2731 26.44 23.0332 26.44 20.2223C26.44 18.6736 25.6678 17.1525 25.004 15.9145L22.3544 10.9765C22.1106 10.5167 21.7403 10.306 21.2742 10.306C20.7963 10.306 20.4281 10.5188 20.1843 10.9786L17.5443 15.9145C16.8806 17.1525 16.1179 18.6736 16.1179 20.2223C16.1179 23.0332 18.4047 25.2731 21.2742 25.2731Z" fill="#8F8F94"/>
</svg>
