<svg width="28" height="28" viewBox="0 0 28 28" fill="none" xmlns="http://www.w3.org/2000/svg">
<path d="M21.8398 16.8672L14.0117 21.0977L6.24219 16.7969L3.3125 18.4961C2.36328 19.0469 2 19.4805 2 20.1133C2 20.7578 2.36328 21.1914 3.3125 21.7422L12.4883 27.0625C13.0508 27.3906 13.4961 27.543 13.9766 27.543C14.4453 27.543 14.9023 27.3906 15.4648 27.0625L24.6289 21.7422C25.5781 21.1914 25.9531 20.7578 25.9531 20.1133C25.9531 19.4805 25.5781 19.0469 24.6289 18.4961L21.8398 16.8672ZM19.7539 12.5195L23.4102 14.6055C23.4688 14.6289 23.5039 14.6641 23.5039 14.7227C23.5039 14.7812 23.4688 14.8047 23.4102 14.8398L14.4922 19.9375C14.3047 20.043 14.1406 20.1016 13.9766 20.1016C13.8125 20.1016 13.6484 20.043 13.4492 19.9375L4.53125 14.8398C4.48438 14.8047 4.44922 14.7812 4.44922 14.7227C4.44922 14.6641 4.48438 14.6289 4.53125 14.6055L8.48047 12.3438L6.60547 11.1953L3.3125 13.0938C2.36328 13.6562 2 14.0781 2 14.7227C2 15.3672 2.36328 15.7891 3.3125 16.3398L12.4883 21.6719C13.0508 22 13.4961 22.1523 13.9766 22.1523C14.4453 22.1523 14.9023 22 15.4648 21.6719L24.6289 16.3398C25.5781 15.7891 25.9531 15.3672 25.9531 14.7227C25.9531 14.0781 25.5781 13.6562 24.6289 13.0938L21.5703 11.3125L19.7539 12.5195ZM13.9766 16.375C14.4453 16.375 14.9023 16.2227 15.4648 15.8945L24.6289 10.5742C25.5781 10.0234 25.9531 9.58984 25.9531 8.94531C25.9531 8.3125 25.5781 7.87891 24.6289 7.32812L15.4648 2.00781C14.9023 1.67969 14.4453 1.52734 13.9766 1.52734C13.4961 1.52734 13.0508 1.67969 12.4883 2.00781L3.3125 7.32812C2.36328 7.87891 2 8.3125 2 8.94531C2 9.58984 2.36328 10.0234 3.3125 10.5742L12.4883 15.8945C13.0508 16.2227 13.4961 16.375 13.9766 16.375ZM13.9766 14.3359C13.8125 14.3359 13.6484 14.2773 13.4492 14.1719L4.53125 9.0625C4.48438 9.03906 4.44922 9.00391 4.44922 8.94531C4.44922 8.89844 4.48438 8.86328 4.53125 8.83984L13.4492 3.73047C13.6484 3.625 13.8125 3.56641 13.9766 3.56641C14.1406 3.56641 14.3047 3.625 14.4922 3.73047L23.4102 8.83984C23.4688 8.86328 23.5039 8.89844 23.5039 8.94531C23.5039 9.00391 23.4688 9.03906 23.4102 9.0625L14.4922 14.1719C14.3047 14.2773 14.1406 14.3359 13.9766 14.3359Z" fill="black"/>
</svg>
