<svg width="28" height="28" viewBox="0 0 28 28" fill="none" xmlns="http://www.w3.org/2000/svg">
<path d="M2 14.3885C2 18.3377 4.01562 21.8299 7.00391 24.0565C7.51953 24.4549 8.16406 24.326 8.45703 23.8455C8.75 23.3651 8.59766 22.8026 8.11719 22.451C5.62109 20.658 4.00391 17.7283 3.99219 14.3885C3.96875 8.8573 8.42188 4.42762 13.9531 4.42762C19.4844 4.42762 23.9375 8.8573 23.9141 14.3885C23.9023 17.7283 22.2852 20.658 19.7891 22.451C19.3086 22.8026 19.1562 23.3651 19.4492 23.8455C19.7422 24.326 20.3867 24.4549 20.9023 24.0565C23.8906 21.8299 25.9062 18.3377 25.9062 14.3885C25.9062 7.84949 20.4922 2.43542 13.9531 2.43542C7.42578 2.43542 2 7.84949 2 14.3885ZM22.9766 24.8651L19.2734 20.9979C18.6875 20.3885 18.125 20.6463 17.9727 21.408L17.0586 25.8143C16.9297 26.4705 17.3164 26.869 17.9961 26.7752L22.4844 26.1424C23.293 26.0252 23.5508 25.4862 22.9766 24.8651ZM10.0977 19.1932C10.5195 19.1932 10.8242 18.9823 11 18.4432L11.8555 15.9471H16.0508L16.9062 18.4432C17.082 18.9823 17.375 19.1932 17.8086 19.1932C18.3242 19.1932 18.6758 18.8533 18.6758 18.3846C18.6758 18.1971 18.6289 18.033 18.5469 17.7752L15.2539 8.92762C15.0312 8.31824 14.5859 8.00183 13.9414 8.00183C13.3086 8.00183 12.875 8.31824 12.6406 8.92762L9.35938 17.7752C9.26562 18.033 9.23047 18.1971 9.23047 18.3729C9.23047 18.8651 9.57031 19.1932 10.0977 19.1932ZM12.3242 14.5408L13.8828 10.0057H14.0117L15.5703 14.5408H12.3242Z" fill="black"/>
</svg>
