<svg width="28" height="28" viewBox="0 0 28 28" fill="none" xmlns="http://www.w3.org/2000/svg">
<path d="M5.19922 25.2656H23.3633C25.3555 25.2656 26.5625 23.8828 26.5625 22.0898C26.5625 21.5391 26.3984 20.9648 26.1055 20.4492L17.0117 4.60547C16.4023 3.53906 15.3594 3 14.2812 3C13.2031 3 12.1484 3.53906 11.5508 4.60547L2.45703 20.4492C2.14062 20.9766 2 21.5391 2 22.0898C2 23.8828 3.20703 25.2656 5.19922 25.2656ZM14.293 17.4375C13.6836 17.4375 13.3438 17.0859 13.332 16.4648L13.1797 10.0898C13.168 9.46875 13.625 9.02344 14.2812 9.02344C14.9141 9.02344 15.4062 9.48047 15.3945 10.1016L15.2188 16.4648C15.207 17.0977 14.8672 17.4375 14.293 17.4375ZM14.293 21.3633C13.5898 21.3633 12.9805 20.8008 12.9805 20.1094C12.9805 19.4062 13.5781 18.8438 14.293 18.8438C14.9961 18.8438 15.5938 19.3945 15.5938 20.1094C15.5938 20.8125 14.9844 21.3633 14.293 21.3633Z" fill="black"/>
</svg>
