<svg width="28" height="28" viewBox="0 0 28 28" fill="none" xmlns="http://www.w3.org/2000/svg">
<g clip-path="url(#clip0_1899_26186)">
<path d="M1 17.6172C1 21.3906 4.41016 25.2109 7.63281 25.2109C10.5508 25.2109 11.9922 22.5625 13.7617 17.8867C13.8555 17.8867 13.9609 17.875 14.0547 17.8633C14.1953 17.8516 14.3242 17.8398 14.4531 17.8047V22.7852C14.4531 24.9297 15.543 26.0547 17.6055 26.0547C21.3789 26.0547 25.2109 22.6445 25.2109 19.4219C25.2109 16.5039 22.5508 15.0625 17.875 13.293C17.875 13.1992 17.8633 13.0938 17.8516 13C17.8398 12.8594 17.8281 12.7305 17.793 12.5898H22.7852C24.918 12.5898 26.043 11.5 26.043 9.4375C26.043 5.66406 22.6328 1.83203 19.4102 1.83203C16.4922 1.83203 15.0508 4.49219 13.2812 9.16797C13.1875 9.16797 13.082 9.17969 12.9883 9.19141C12.8477 9.20312 12.7188 9.21484 12.5898 9.25V4.26953C12.5898 2.125 11.5 1 9.4375 1C5.66406 1 1.83203 4.41016 1.83203 7.63281C1.83203 10.5508 4.49219 11.9922 9.15625 13.7617C9.16797 13.8672 9.16797 13.9844 9.17969 14.0781C9.19141 14.207 9.22656 14.3359 9.23828 14.4648H4.25781C2.125 14.4648 1 15.543 1 17.6172ZM10.8086 13.5273C10.8086 12.0273 12.0156 10.8086 13.5156 10.8086C15.0156 10.8086 16.2344 12.0273 16.2344 13.5273C16.2344 15.0273 15.0156 16.2461 13.5156 16.2461C12.0273 16.2461 10.8086 15.0273 10.8086 13.5273ZM11.9102 13.5273C11.9102 14.418 12.6133 15.1211 13.5156 15.1211C14.4062 15.1211 15.1094 14.418 15.1094 13.5273C15.1094 12.6367 14.3945 11.9219 13.5156 11.9219C12.6133 11.9219 11.9102 12.625 11.9102 13.5273Z" fill="black"/>
</g>
<defs>
<clipPath id="clip0_1899_26186">
<rect width="25.043" height="25.0664" fill="white" transform="translate(1 1)"/>
</clipPath>
</defs>
</svg>
