<svg xmlns="http://www.w3.org/2000/svg" width="512" height="576" viewBox="0 0 512 576">
  <path id="primary" class="cls-1" d="M202,10h74c15.232,0,31.724-.7,43,3l7,1v1h2v1h3v1h2v1h2l1,2,4,1,2,3,3,1v2l2,1v2l2,1q0.5,2,1,4h1q1,3,2,6h1q0.5,3.5,1,7c4.565,14.025,3.1,36.715,3,55,1.722,1.007,4.266,4.647,5,5H477v1l7,1c4.171,1.949,5.953,6.821,6,13-1.361,1.166-1.528,1.825-2,4l-8,5H446c-0.993,1.666-4.674,4.319-5,5v16c-3.515,4.116.679,15.032-1,21h-1v21h-1v22h-1v21c-1.533,5.445.706,14.943-1,21-1.534,5.445.707,14.944-1,21-1.661,5.894.7,15.962-1,22-1.535,5.444.708,14.945-1,21-3.395,12.036.385,29.959-3,42v13q-0.5,15-1,30h-1v13q-0.5,15-1,30h-1v21h-1v21s-0.834.079-1,2v11h-1v5h-1v4h-1v4h-1v3h-1l-2,6h-1l-1,4-2,1v2l-5,4-3,4h-2l-1,2-4,1v1l-4,1v1l-5,1v1h-4c-10.449,3.529-24.636,3-39,3H174c-18.765,0-43.839,1.726-57-4v-1l-6-2v-1l-4-1q-0.5-1-1-2h-2l-2-3h-2l-1-3-3-2v-2l-2-1-1-4H92l-1-4H90l-1-5H88v-4H87v-4H86v-5H85V493c-0.233-1.395-.619.362-1-1V471H83c-1.7-6.053.653-16.1-1-22V428c-1.53-5.445.7-14.941-1-21-1.531-5.446.139-14.179-1-21v-1H79V364H78V343H77V322c-1.659-5.9.7-15.957-1-22H75V279c-0.383-1.361-.769.395-1-1V258H73l-1-30V215c-1.532-5.446.7-14.94-1-21-1.532-5.446.7-14.94-1-21-1.658-5.9.7-15.956-1-22H68V137c-1.692-1-4.295-4.662-5-5H30c-1.494-1.484-4.961-2.18-7-3-2.337-4.263-3.939-4.915-4-12,2.757-2.485,1.448-4.777,6-6,4.689-4.613,23.438-3,33-3h88c1-1.7,4.657-4.284,5-5V56c1.916-2.177.94-6.84,2-10h1V42h1V40h1V37h1V35l9-12h2l2-3,4-1V18l6-2V15l9-2V12C192.636,10.783,199.53,12.145,202,10Zm-3,22v1h-4v1c-8.036,1.713-15.624,11.455-18,19v50c1.726,1.008,4.262,4.645,5,5H326c1-1.7,4.655-4.282,5-5V51h-1V48l-2-1V45L316,34c-8.653-3.963-25.172-2-37-2H199ZM98,132c-0.995,1.672-4.671,4.313-5,5v19c3.515,4.117-.679,15.031,1,21h1v20h1v21c0.383,1.361.769-.4,1,1v20h1l1,28v13h1q0.5,14.5,1,29v13c1.536,5.444-.708,14.945,1,21,1.454,5.153-.628,14.231,1,20,1.537,5.444-.709,14.946,1,21,1.537,5.444-.709,14.946,1,21,3.318,11.753-.3,29.261,3,41v21h1v21h1v16h1q0.5,3.5,1,7h1c3.092,6.013,4.662,6.69,9,11l3,4c7.914,5.313,22.856,4,36,4H341c14.713,0,33.99,2.063,43-4l2-3c4.55-4.456,9.718-8.282,12-15,2.248-6.619-.929-17.113,1-24,3.459-12.349-.454-30.671,3-43V419c1.656-5.9-.7-15.955,1-22,3.546-12.622-.543-31.376,3-44V331c1.658-5.9-.7-15.957,1-22h1V288s0.835-.085,1-2V266h1q0.5-15,1-30V222c1.658-5.9-.7-15.955,1-22,1.658-5.9-.7-15.955,1-22,1.531-5.446-.7-14.939,1-21,1.4-4.97.974-13.44,1-20a13.326,13.326,0,0,1-5-5H98Zm80,65q0.5,2,1,4h1v16h1v34h1v34h1v35h1v34h1v34h1v34c2.209,7.885.778,20.412,1,30q0.5,5,1,10h-1q-0.5,2.5-1,5c-1.135.844-.145-0.127-1,1-4.341.408-3.971,0.687-8,0-0.593-1.116-1.743-1.571-2-2v-2h-1q-1-28.5-2-57V386c-1.707-6.089-1-16.266-1-24q-0.5-13.5-1-27V316h-1V281h-1V246h-1V230q-0.5-14-1-28h1v-4l2-1v-1l5-1v1Zm82,0c2.814,13.286,2,32.618,2,49V416c0,16.956.929,37.172-2,51-2.274.51-4.556,2.681-7,2v-1l-4-1q-0.5-2-1-4h-1V254c0-18.85-1.073-41.306,2-57l4-1v-1Zm81,0q0.5,2.5,1,5h1q-0.5,5-1,10c-0.058,9.862.354,21.736-1,30-1.79,10.924,1.653,24.575-1,34q-1.5,62.495-3,125v16h-1v12c0,8.5-.4,18.026-1,25-0.75,8.694,1.59,11.588-6,14v1l-5-1v-1c-4.172-3.689-2.01-8.989-2-16q0.5-18.5,1-37,2-75.993,4-152V248h1V236c0-8.5.411-18.031,1-25,0.613-7.25-1.218-13.338,5-15l3-1v1Z" fill="white"/>
</svg>
