<svg width="28" height="28" viewBox="0 0 28 28" fill="none" xmlns="http://www.w3.org/2000/svg">
<path d="M3 7.18422H23.9796V4.07032C23.9796 2.28579 22.8075 1.08814 21.0869 1.08814H5.90226C4.17 1.08814 3 2.28579 3 4.07032V7.18422ZM7.42148 5.88532C6.79124 5.88532 6.27703 5.35938 6.27703 4.74087C6.27703 4.10314 6.79124 3.59642 7.42148 3.59642C8.0496 3.59642 8.55421 4.10314 8.55421 4.74087C8.55421 5.35938 8.0496 5.88532 7.42148 5.88532ZM10.6617 5.88532C10.0336 5.88532 9.52686 5.35938 9.52686 4.74087C9.52686 4.10314 10.0336 3.59642 10.6617 3.59642C11.2898 3.59642 11.7965 4.10314 11.7965 4.74087C11.7965 5.35938 11.2898 5.88532 10.6617 5.88532ZM17.1637 5.42407C16.7583 5.42407 16.488 5.14634 16.488 4.74087C16.488 4.33751 16.7583 4.05017 17.1637 4.05017H19.9854C20.3983 4.05017 20.6686 4.33751 20.6686 4.74087C20.6686 5.14634 20.3983 5.42407 19.9854 5.42407H17.1637ZM9.25569 21.1804H13.3917C13.1944 20.5717 13.0247 19.8585 13.0247 18.9948C13.0247 17.0437 13.9683 14.7166 16.0505 14.7166C16.8494 14.7166 17.4928 15.1023 17.8151 15.4813C17.9016 15.3468 18.019 15.2294 18.1652 15.1621V13.4669C18.1652 13.195 17.9862 13.0138 17.7239 13.0138H9.25569C8.99342 13.0138 8.81436 13.195 8.81436 13.4669V20.7295C8.81436 21.0013 8.99342 21.1804 9.25569 21.1804ZM5.90226 26.3556H14.5626C14.6491 25.9061 15.0291 25.4636 15.0291 24.8673C15.0291 24.3212 14.4532 23.7016 13.9336 22.671H8.89921C7.96921 22.671 7.32374 22.0277 7.32374 21.088V13.1083C7.32374 12.1666 7.96921 11.5253 8.89921 11.5253H18.0804C19.0104 11.5253 19.6655 12.1666 19.6655 13.1083V14.7262C20.4225 14.7463 20.9313 15.0634 21.382 15.497C22.0516 14.8117 23.0522 14.5164 23.9796 14.8483V8.93195H3V23.3734C3 25.158 4.17 26.3556 5.90226 26.3556Z" fill="black"/>
<path d="M16.5841 27.2955C16.961 27.5509 17.5455 27.5371 17.8767 26.9835C18.2334 26.3455 18.4411 25.5937 18.4411 24.8673C18.4411 22.2219 16.425 20.9427 16.425 18.9948C16.425 18.5144 16.5166 18.164 16.8138 17.6612C17.0693 17.2173 16.867 16.7648 16.5295 16.5529C16.1526 16.3155 15.5819 16.3506 15.2838 16.8766C14.9058 17.507 14.7119 18.2547 14.7119 18.9948C14.7119 21.5976 16.7163 22.8768 16.7163 24.8673C16.7163 25.3478 16.6322 25.6748 16.3371 26.1892C16.0741 26.6427 16.2893 27.0911 16.5841 27.2955ZM20.1471 27.2858C20.5411 27.5509 21.1277 27.5179 21.4301 26.9739C21.7964 26.3338 22.0019 25.5937 22.0019 24.8673C22.0019 22.2123 19.9858 20.9331 19.9858 18.9852C19.9858 18.5144 20.0796 18.164 20.3651 17.6516C20.6322 17.2077 20.4204 16.7648 20.0808 16.5529C19.7156 16.3251 19.1353 16.3506 18.8351 16.8648C18.4687 17.507 18.2749 18.2451 18.2749 18.9852C18.2749 21.5976 20.2772 22.8672 20.2772 24.8673C20.2772 25.3382 20.1951 25.6651 19.9076 26.1775C19.6446 26.6427 19.8426 27.0815 20.1471 27.2858ZM23.7143 27.2762C24.1083 27.5413 24.6949 27.5083 24.9972 26.9643C25.3636 26.3242 25.5691 25.5841 25.5691 24.8577C25.5691 22.2027 23.553 20.9235 23.553 18.9756C23.553 18.5027 23.6468 18.1544 23.9322 17.642C24.1994 17.1981 23.9876 16.7552 23.6479 16.5433C23.2732 16.3155 22.7025 16.3389 22.4022 16.8552C22.0263 17.4974 21.8421 18.2355 21.8421 18.9756C21.8421 21.588 23.8444 22.8555 23.8444 24.8577C23.8444 25.3286 23.7623 25.6534 23.4651 26.1679C23.2022 26.6331 23.4098 27.0719 23.7143 27.2762Z" fill="black"/>
</svg>
