<svg width="28" height="28" viewBox="0 0 28 28" fill="none" xmlns="http://www.w3.org/2000/svg">
<path d="M20.0869 1H4.90226C3.17 1 2 2.20726 2 3.98218V7.1057H22.9796V3.98218C22.9796 2.20726 21.8075 1 20.0869 1ZM6.42148 5.70859C5.79124 5.70859 5.27703 5.18054 5.27703 4.56414C5.27703 3.92641 5.79124 3.41008 6.42148 3.41008C7.0496 3.41008 7.55421 3.92641 7.55421 4.56414C7.55421 5.18054 7.0496 5.70859 6.42148 5.70859ZM9.66171 5.70859C9.03358 5.70859 8.52686 5.18054 8.52686 4.56414C8.52686 3.92641 9.03358 3.41008 9.66171 3.41008C10.2898 3.41008 10.7965 3.92641 10.7965 4.56414C10.7965 5.18054 10.2898 5.70859 9.66171 5.70859ZM16.3601 5.24734C15.9547 5.24734 15.6844 4.96961 15.6844 4.56414C15.6844 4.15117 15.9547 3.87344 16.3601 3.87344H19.1818C19.5947 3.87344 19.865 4.15117 19.865 4.56414C19.865 4.96961 19.5947 5.24734 19.1818 5.24734H16.3601ZM4.90226 26.2654H14.0389C13.9421 26.1079 13.8495 25.9344 13.7804 25.7451L12.9896 23.6221C12.8342 23.6338 12.6617 23.6359 12.4946 23.6359C8.90843 23.6359 6.00288 20.7304 6.00288 17.1538C6.00288 13.5772 8.90843 10.6642 12.4946 10.6642C15.9678 10.6642 18.808 13.4212 18.9366 16.8522C18.9366 16.9216 18.9387 17.0026 18.9291 17.0837C19.0372 17.1398 19.1091 17.1714 19.2047 17.1714C19.614 17.1714 20.6213 16.3002 21.9718 16.3002C22.3747 16.3002 22.722 16.3684 22.9796 16.4526V8.85131H2V23.2928C2 25.0698 3.17 26.2654 4.90226 26.2654ZM7.49256 17.1538C7.49256 20.0476 9.90733 22.1507 12.4437 22.1483L11.3044 19.0776C10.8212 17.7714 11.4662 16.4863 12.6256 16.0647C13.4452 15.7677 14.3776 15.9592 15.0099 16.5848C15.3427 16.4493 15.7545 16.3276 16.2741 16.3234C16.6496 16.3171 17.0155 16.409 17.3696 16.5414C17.3633 16.3846 17.3494 16.2299 17.3239 16.0731C16.8709 13.829 14.881 12.1518 12.4946 12.1518C9.71397 12.1518 7.49256 14.3753 7.49256 17.1538Z" fill="black"/>
<path d="M19.2048 19.9133C20.5998 19.9133 20.9298 19.0133 21.9623 19.0133C22.8152 19.0133 23.1571 19.6511 24.2427 19.8128L24.4387 18.5439C23.6104 18.3587 23.0758 17.6945 21.9623 17.6945C20.6022 17.6945 20.1201 18.5945 19.2048 18.5945C18.2875 18.5945 17.7958 17.6945 16.4378 17.6945C15.3318 17.6945 14.7876 18.3587 13.9593 18.5439L14.1552 19.8128C15.2409 19.6511 15.5828 19.0133 16.4378 19.0133C17.4681 19.0133 17.7981 19.9133 19.2048 19.9133ZM16.532 26.2888H21.868C22.5121 26.2888 23.0678 25.9173 23.3169 25.2583L25.7929 18.5908C26.012 17.9833 25.7099 17.5248 25.2972 17.3748C24.8769 17.2269 24.3398 17.3631 24.1131 17.9589L21.7797 24.2031C21.7019 24.411 21.5781 24.4942 21.3927 24.4942H17.0052C16.8198 24.4942 16.6961 24.411 16.6183 24.2031L14.2848 17.9589C14.0678 17.3631 13.521 17.2269 13.1104 17.3748C12.6881 17.5248 12.3956 17.9833 12.6147 18.5908L15.0906 25.2583C15.3302 25.9173 15.8955 26.2888 16.532 26.2888Z" fill="black"/>
</svg>
