<?xml version="1.0" encoding="utf-8"?>
<!-- Generator: Adobe Illustrator 27.1.1, SVG Export Plug-In . SVG Version: 6.00 Build 0)  -->
<svg version="1.1" id="Layer_1" xmlns="http://www.w3.org/2000/svg" xmlns:xlink="http://www.w3.org/1999/xlink" x="0px" y="0px"
	 viewBox="0 0 28 28" style="enable-background:new 0 0 28 28;" xml:space="preserve">
<path d="M24.1,4.7H19V3c0-1.9-1.2-3-3.2-3h-4.4c-2,0-3.2,1.1-3.2,3v1.8H3c-0.6,0-1,0.4-1,1c0,0.6,0.5,1,1,1h1.6l0.7,17
	c0.1,1.6,1,2.4,2.6,2.4h11.1c1.6,0,2.5-0.9,2.6-2.4l0.7-17h1.6c0.6,0,1-0.5,1-1C25.1,5.2,24.7,4.7,24.1,4.7z M10.5,3.1
	c0-0.5,0.4-0.9,1-0.9h4.1c0.6,0,1,0.4,1,0.9v1.7h-6.1V3.1z M12.2,20H9.4c-1,0-1.6-0.7-1.6-1.6c0-0.3,0.1-0.5,0.2-0.8l1.3-2.3
	l-0.8,0.2C8.3,15.7,8,15.5,8,15.3C7.9,15,8,14.7,8.3,14.7l1.8-0.5c0.2-0.1,0.4,0,0.5,0c0.2,0.1,0.2,0.2,0.3,0.4l0.5,1.8
	c0.1,0.3-0.1,0.5-0.3,0.6c-0.3,0.1-0.5-0.1-0.6-0.3l-0.2-0.8L9,18.1c-0.1,0.1-0.1,0.2-0.1,0.3c0,0.3,0.2,0.6,0.6,0.6h2.7
	c0.3,0,0.5,0.2,0.5,0.5S12.5,20,12.2,20z M11.7,13.3c-0.1,0.3-0.4,0.3-0.7,0.2c-0.3-0.1-0.3-0.4-0.2-0.7l1.4-2.5
	c0.3-0.5,0.8-0.8,1.3-0.8c0.5,0,1,0.3,1.3,0.8l1.4,2.5l0.2-0.8c0.1-0.3,0.3-0.4,0.6-0.3c0.3,0.1,0.4,0.3,0.3,0.6L16.9,14
	c-0.1,0.2-0.1,0.3-0.3,0.4c-0.2,0.1-0.3,0.1-0.5,0l-1.8-0.5c-0.3-0.1-0.4-0.3-0.3-0.6c0.1-0.3,0.3-0.4,0.6-0.3l0.8,0.2L14,10.8
	c-0.1-0.2-0.3-0.3-0.5-0.3c-0.2,0-0.4,0.1-0.5,0.3L11.7,13.3z M17.7,20h-2.6l0.6,0.6c0.2,0.2,0.2,0.5,0,0.7c-0.2,0.2-0.5,0.2-0.7,0
	L13.7,20c-0.1-0.1-0.2-0.3-0.2-0.5c0-0.2,0.1-0.3,0.2-0.5l1.3-1.3c0.2-0.2,0.5-0.2,0.7,0c0.2,0.2,0.2,0.5,0,0.7L15.1,19h2.5
	c0.3,0,0.6-0.3,0.6-0.6c0-0.1,0-0.2-0.1-0.3l-1.3-2.3c-0.1-0.3-0.1-0.6,0.2-0.7c0.3-0.1,0.6-0.1,0.7,0.2l1.4,2.4
	c0.1,0.3,0.2,0.5,0.2,0.8C19.3,19.3,18.7,20,17.7,20z"/>
</svg>
