<svg width="31" height="28" viewBox="0 0 31 28" fill="none" xmlns="http://www.w3.org/2000/svg">
<path d="M15.0176 19.5468H16.1039C22.0919 19.5468 26.0897 15.4816 26.0897 9.27881V6.87249C26.0897 3.97585 21.8524 2.03101 15.5618 2.03101C9.27117 2.03101 5.0339 3.97585 5.0339 6.87249V9.27881C5.0339 15.3044 9.01992 19.5468 15.0176 19.5468ZM15.5618 9.62429C10.7435 9.62429 7.12358 8.4053 7.12358 6.87249C7.12358 5.34717 10.7414 4.12068 15.5618 4.12068C20.3939 4.12068 24.0096 5.34717 24.0096 6.87249C24.0096 8.4053 20.3918 9.62429 15.5618 9.62429ZM24.7249 14.2448H25.7308C28.4053 14.2448 30.0157 12.8357 30.0157 10.5032C30.0157 8.18663 28.3915 6.76796 25.7308 6.76796H24.869V8.80795H25.7308C27.1537 8.80795 27.9661 9.4349 27.9661 10.5032C27.9661 11.5661 27.1516 12.2048 25.7308 12.2048H24.7249V14.2448ZM15.499 25.2613C24.5866 25.2613 30.9958 22.6647 30.9958 18.8606C30.9958 17.4309 30.0654 16.1685 28.4114 15.1481C27.6745 15.4727 26.8504 15.6557 25.9167 15.6855C24.0091 19.0054 20.5209 20.9896 16.1039 20.9896H15.0176C10.0387 20.9896 6.17367 18.3337 4.49156 14.1731C1.6418 15.3063 0 16.9338 0 18.8606C0 22.6647 6.42093 25.2613 15.499 25.2613Z" fill="black"/>
</svg>
