<svg width="30" height="28" viewBox="0 0 30 28" fill="none" xmlns="http://www.w3.org/2000/svg">
<path d="M3.84421 25.26H25.1904C27.7294 25.26 29.0346 23.9548 29.0346 21.4542V6.80577C29.0346 4.30312 27.7294 3 25.1904 3H3.84421C1.31484 3 0 4.29351 0 6.80577V21.4542C0 23.9644 1.31484 25.26 3.84421 25.26ZM3.97733 22.9641C2.88772 22.9641 2.29592 22.3924 2.29592 21.2613V6.99655C2.29592 5.85795 2.88772 5.29592 3.97733 5.29592H25.0573C26.1373 5.29592 26.7387 5.85795 26.7387 6.99655V21.2613C26.7387 22.3924 26.1373 22.9641 25.0573 22.9641H3.97733Z" fill="black"/>
<path d="M4.92497 21.251H24.1093C24.7022 21.251 25.035 20.9065 25.035 20.3114V7.94651C25.035 7.34393 24.7022 6.99939 24.1093 6.99939H4.92497C4.332 6.99939 4.00879 7.34393 4.00879 7.94651V20.3114C4.00879 20.9065 4.332 21.251 4.92497 21.251Z" fill="black"/>
</svg>
