<svg width="28" height="28" viewBox="0 0 28 28" fill="none" xmlns="http://www.w3.org/2000/svg">
<path d="M4.66203 25.2788H15.6378C17.3858 25.2788 18.2998 24.3434 18.2998 22.4602V14.154C18.2998 12.2846 17.3858 11.3492 15.6378 11.3492H4.66203C2.91617 11.3492 2 12.2846 2 14.154V22.4602C2 24.3434 2.91617 25.2788 4.66203 25.2788ZM14.1235 12.2949H16.3168V8.37312C16.3168 5.60233 18.0802 4.10702 20.1788 4.10702C22.2774 4.10702 24.0409 5.60233 24.0409 8.37312V10.8566C24.0409 11.6682 24.5206 12.0957 25.1471 12.0957C25.7544 12.0957 26.2437 11.6991 26.2437 10.8566V8.59601C26.2437 4.1518 23.2796 2 20.1788 2C17.0684 2 14.1235 4.1518 14.1235 8.59601V12.2949Z" fill="black"/>
</svg>
