<svg width="28" height="29" viewBox="0 0 28 29" fill="none" xmlns="http://www.w3.org/2000/svg">
<path d="M13.7677 28.4667C18.1555 28.4646 20.7755 27.3551 20.7755 25.4386C20.7755 23.6955 18.5534 22.6137 14.7934 22.4423V17.609C19.4942 17.2345 22.5589 14.1883 22.5589 9.75304C22.5589 7.29046 21.5225 4.0514 20.0185 1.7475C19.2912 0.620858 17.0087 0 13.7773 0C10.5247 0 8.24961 0.620858 7.51695 1.7475C6.01508 4.04929 5 7.28835 5 9.75304C5 14.2001 8.06469 17.2345 12.7655 17.609V22.4423C8.99586 22.6041 6.77375 23.6955 6.77375 25.4386C6.77375 27.3551 9.38422 28.4646 13.7677 28.4667ZM13.7773 3.08015C11.1835 3.08015 9.39475 2.76281 9.39475 2.38804C9.39475 2.02499 11.1931 1.71726 13.7773 1.71726C16.3637 1.71726 18.1599 2.02499 18.1599 2.38804C18.1599 2.76281 16.3637 3.08015 13.7773 3.08015Z" fill="black"/>
</svg>
