<svg width="28" height="28" viewBox="0 0 28 28" fill="none" xmlns="http://www.w3.org/2000/svg">
<path d="M10.2169 24.3247H17.7361C18.1608 24.3247 18.4854 23.9841 18.4854 23.57C18.4854 23.1613 18.1608 22.8228 17.7361 22.8228H10.2169C9.79223 22.8228 9.45801 23.1613 9.45801 23.57C9.45801 23.9841 9.79223 24.3247 10.2169 24.3247ZM13.9728 27.8054C15.8271 27.8054 17.3219 26.9042 17.4455 25.5418H10.497C10.5896 26.9042 12.1067 27.8054 13.9728 27.8054Z" fill="black"/>
<path d="M6 7.35374C6 11.8094 8.91844 13.0704 9.3525 20.7159C9.37594 21.2644 9.735 21.6077 10.3026 21.6077H17.6428C18.2201 21.6077 18.5674 21.2644 18.6026 20.7159C19.0366 13.0704 21.9476 11.8116 21.9476 7.35585C21.9476 3.20953 18.4083 0 13.9727 0C9.53718 0 6 3.20742 6 7.35374Z" fill="black"/>
</svg>
