<svg width="28" height="28" viewBox="0 0 28 28" fill="none" xmlns="http://www.w3.org/2000/svg">
<path d="M13.3768 26.8951H15.5225C16.2162 26.8951 16.7354 26.4769 16.8833 25.8012L17.4737 23.3096C17.878 23.1741 18.2705 23.0173 18.613 22.853L20.7966 24.1894C21.3701 24.548 22.0393 24.4885 22.5202 24.0118L24.0256 22.516C24.5065 22.0351 24.5715 21.3287 24.1894 20.7573L22.8572 18.597C23.0312 18.2375 23.1858 17.8662 23.3 17.4929L25.8151 16.8929C26.4908 16.7471 26.8993 16.2258 26.8993 15.5321V13.4258C26.8993 12.7437 26.4908 12.2246 25.8151 12.0746L23.3255 11.4767C23.1901 11.0553 23.0258 10.6723 22.8786 10.3512L24.215 8.15163C24.5874 7.5739 24.5396 6.90265 24.0448 6.42594L22.5139 4.91633C22.0255 4.47148 21.4234 4.39062 20.8402 4.71523L18.613 6.09102C18.2801 5.915 17.8972 5.76031 17.4758 5.62273L16.8833 3.09593C16.7354 2.42023 16.2162 2 15.5225 2H13.3768C12.683 2 12.1639 2.42023 12.0085 3.09804L11.416 5.59929C11.0117 5.73476 10.617 5.89156 10.265 6.07719L8.05905 4.71523C7.47382 4.39062 6.86632 4.45977 6.37367 4.92054L4.85445 6.42594C4.35969 6.90265 4.30438 7.5739 4.6864 8.15163L6.01109 10.3512C5.87352 10.6723 5.70922 11.0553 5.57586 11.4767L3.08632 12.0746C2.40851 12.2246 2 12.7437 2 13.4258V15.5321C2 16.2258 2.40851 16.7471 3.08632 16.8929L5.59929 17.4929C5.71555 17.8662 5.86812 18.2375 6.03242 18.597L4.70984 20.7573C4.3182 21.3287 4.39484 22.0351 4.87578 22.516L6.37156 24.0118C6.85039 24.4885 7.53124 24.548 8.10475 24.1894L10.2767 22.853C10.6308 23.0173 11.0117 23.1741 11.416 23.3096L12.0085 25.8012C12.1639 26.4769 12.683 26.8951 13.3768 26.8951ZM14.4507 18.5516C12.1962 18.5516 10.3498 16.6934 10.3498 14.439C10.3498 12.1962 12.1962 10.3498 14.4507 10.3498C16.703 10.3498 18.5494 12.1962 18.5494 14.439C18.5494 16.6934 16.703 18.5516 14.4507 18.5516Z" fill="black"/>
</svg>
