<svg width="28" height="28" viewBox="0 0 28 28" fill="none" xmlns="http://www.w3.org/2000/svg">
<path d="M8.00304 26.1717H19.1096C20.704 26.1717 21.6315 25.3188 21.6985 23.7412L22.4422 6.791H24.0755C24.653 6.791 25.1126 6.33233 25.1126 5.75483C25.1126 5.18156 24.653 4.7325 24.0755 4.7325H3.0371C2.46922 4.7325 2 5.18156 2 5.75483C2 6.34194 2.46922 6.791 3.0371 6.791H4.68008L5.42375 23.7412C5.48867 25.3188 6.4182 26.1717 8.00304 26.1717ZM9.80515 22.6008C9.34109 22.6008 9.01648 22.2996 9.00476 21.8334L8.64359 9.35647C8.63187 8.8978 8.94804 8.58491 9.44726 8.58491C9.91015 8.58491 10.2444 8.88819 10.2561 9.34475L10.6055 21.8271C10.6173 22.2879 10.299 22.6008 9.80515 22.6008ZM13.5622 22.6008C13.0747 22.6008 12.733 22.2921 12.733 21.8355V9.35225C12.733 8.89569 13.0747 8.58491 13.5622 8.58491C14.0476 8.58491 14.3797 8.89569 14.3797 9.35225V21.8355C14.3797 22.2921 14.0476 22.6008 13.5622 22.6008ZM17.3075 22.6008C16.8137 22.6008 16.4954 22.2879 16.5071 21.8271L16.8566 9.35436C16.8704 8.88819 17.2025 8.58491 17.6654 8.58491C18.155 8.58491 18.4808 8.8978 18.469 9.35647L18.11 21.8334C18.0962 22.2996 17.7716 22.6008 17.3075 22.6008ZM8.11156 5.14757H10.5259V3.08203C10.5259 2.55304 10.8938 2.20101 11.4781 2.20101H15.6249C16.2092 2.20101 16.5772 2.55304 16.5772 3.08203V5.14757H18.9819V2.97328C18.9819 1.11305 17.7795 0 15.7695 0H11.3239C9.3139 0 8.11156 1.11305 8.11156 2.97328V5.14757Z" fill="black"/>
</svg>
