<svg width="29" height="28" viewBox="0 0 29 28" fill="none" xmlns="http://www.w3.org/2000/svg">
<path d="M5.1246 9.7125C5.37725 8.54273 5.90507 6.98507 6.25804 6.356C6.59554 5.74194 6.97968 5.48108 7.69686 5.3864C8.53686 5.27554 10.5396 5.20194 14.1248 5.20194C17.7197 5.20194 19.7245 5.25421 20.557 5.3864C21.27 5.49069 21.6445 5.74194 21.9937 6.356C22.3542 6.97546 22.8574 8.54273 23.1368 9.7125C23.257 10.2115 23.04 10.4367 22.5209 10.4154C20.7084 10.3055 18.4261 10.1904 14.1248 10.1904C9.83741 10.1904 7.55507 10.3055 5.74053 10.4154C5.21178 10.4367 5.00225 10.2115 5.1246 9.7125ZM5.55328 18.6553C4.44468 18.6553 3.59273 17.8055 3.59273 16.6969C3.59273 15.5787 4.44468 14.7363 5.55328 14.7363C6.66187 14.7363 7.51171 15.5787 7.51171 16.6969C7.51171 17.8055 6.66187 18.6553 5.55328 18.6553ZM10.9678 18.1612C10.1297 18.1612 9.55148 17.583 9.55148 16.7449C9.55148 15.9143 10.1297 15.3361 10.9678 15.3361H17.2915C18.1221 15.3361 18.7003 15.9143 18.7003 16.7449C18.7003 17.583 18.1221 18.1612 17.2915 18.1612H10.9678ZM22.6985 18.6553C21.5899 18.6553 20.7476 17.8055 20.7476 16.6969C20.7476 15.5787 21.5899 14.7363 22.6985 14.7363C23.8167 14.7363 24.659 15.5787 24.659 16.6969C24.659 17.8055 23.8167 18.6553 22.6985 18.6553ZM14.1248 21.9164C18.1277 21.9164 23.3787 21.7172 25.5998 21.4594C27.2948 21.2667 28.2518 20.3076 28.2518 18.7043V16.7156C28.2518 14.655 27.8702 13.5155 26.7773 12.0923L25.739 10.7897C25.3129 8.68031 24.5299 6.46757 24.1272 5.59828C23.4733 4.21922 22.2178 3.39398 20.6001 3.17672C19.7601 3.06281 17.2423 3 14.1248 3C11.0191 3 8.50124 3.07242 7.66124 3.17672C6.04148 3.37476 4.77843 4.21922 4.13414 5.59828C3.72187 6.46757 2.94844 8.68031 2.51062 10.7897L1.48195 12.0923C0.381563 13.5155 0 14.655 0 16.7156V18.7043C0 20.3076 0.966559 21.2688 2.65195 21.4594C4.88273 21.7151 10.1241 21.9164 14.1248 21.9164ZM1.58812 25.2276H2.99086C3.88453 25.2276 4.57898 24.5353 4.57898 23.6491V20.6721L0 18.4022V23.6491C0 24.5353 0.694453 25.2276 1.58812 25.2276ZM25.2609 25.2276H26.6733C27.5669 25.2276 28.2518 24.5353 28.2518 23.6491V18.4022L23.6824 20.6721V23.6491C23.6824 24.5353 24.3672 25.2276 25.2609 25.2276Z" fill="black"/>
</svg>
