<svg width="28" height="28" viewBox="0 0 28 28" fill="none" xmlns="http://www.w3.org/2000/svg">
<path d="M12.4169 27.3998C15.9417 27.3998 18.7966 24.5563 18.7966 21.0294C18.7966 19.2081 18.0658 17.62 16.6638 16.3333C16.4219 16.1106 16.3654 15.9763 16.3676 15.6332V5.29468C16.3676 2.7407 14.7633 1 12.4169 1C10.0409 1 8.43117 2.7407 8.43117 5.29468V15.6332C8.43117 15.9763 8.38641 16.1127 8.13492 16.3333C6.73406 17.6095 6 19.2081 6 21.0294C6 24.5563 8.86664 27.3998 12.4169 27.3998ZM12.4169 25.3968C9.98249 25.3968 8.02639 23.4194 8.02639 21.0041C8.02639 19.5203 8.72202 18.2214 9.95788 17.3957C10.319 17.1538 10.4576 16.9396 10.4576 16.4612V5.3671C10.4576 3.96718 11.2556 3.02428 12.4169 3.02428C13.5506 3.02428 14.3487 3.96718 14.3487 5.3671V16.4612C14.3487 16.9396 14.4893 17.1538 14.8483 17.3957C16.0842 18.2214 16.7819 19.5203 16.7819 21.0041C16.7819 23.4194 14.8162 25.3968 12.4169 25.3968Z" fill="black"/>
<path d="M18.6002 5.55812H21.1748C21.6061 5.55812 21.8979 5.23117 21.8979 4.8468C21.8979 4.46031 21.6061 4.13336 21.1748 4.13336H18.6002C18.169 4.13336 17.8772 4.46031 17.8772 4.8468C17.8772 5.23117 18.169 5.55812 18.6002 5.55812ZM18.6002 8.81524H21.1748C21.6061 8.81524 21.8979 8.48828 21.8979 8.1018C21.8979 7.71532 21.6061 7.39047 21.1748 7.39047H18.6002C18.169 7.39047 17.8772 7.71532 17.8772 8.1018C17.8772 8.48828 18.169 8.81524 18.6002 8.81524ZM18.6002 12.0829H21.1748C21.6061 12.0829 21.8979 11.7559 21.8979 11.3694C21.8979 10.9851 21.6061 10.6485 21.1748 10.6485H18.6002C18.169 10.6485 17.8772 10.9851 17.8772 11.3694C17.8772 11.7559 18.169 12.0829 18.6002 12.0829ZM18.6002 15.3505H21.1748C21.6061 15.3505 21.8979 15.0236 21.8979 14.6371C21.8979 14.2431 21.6061 13.9162 21.1748 13.9162H18.6002C18.169 13.9162 17.8772 14.2431 17.8772 14.6371C17.8772 15.0236 18.169 15.3505 18.6002 15.3505Z" fill="black"/>
<path d="M12.4031 23.8148C13.9586 23.8148 15.2116 22.5618 15.2116 20.9945C15.2116 19.9056 14.5968 19.0117 13.7029 18.5259C13.3321 18.3266 13.2032 18.186 13.2032 17.6181V11.3718C13.2032 10.8072 12.8442 10.4481 12.4031 10.4481C11.9545 10.4481 11.6029 10.8072 11.6029 11.3718V17.6181C11.6029 18.186 11.4761 18.3266 11.1032 18.5259C10.2114 19.0117 9.59668 19.9056 9.59668 20.9945C9.59668 22.5618 10.8496 23.8148 12.4031 23.8148Z" fill="black"/>
</svg>
