<svg width="28" height="28" viewBox="0 0 28 28" fill="none" xmlns="http://www.w3.org/2000/svg">
<g clip-path="url(#clip0_1899_28937)">
<path d="M1.33984 4.41797C1.09375 5.61328 1 7.17188 1 8.21484C1 16.9805 6.21484 22.7695 14.1836 22.7695C19.3164 22.7695 21.7305 19.7461 22.2578 18.7734L20.793 18.7383C22.3164 20.332 22.9961 22.043 23.7695 24.4688C23.9453 25.0312 24.332 25.2305 24.7422 25.2305C25.6094 25.2305 26.3008 24.4805 26.3008 23.4492C26.3008 21.832 23.9805 19.0195 22.7734 17.8828C17.6406 13.1484 9.82422 15.9492 7.80859 10.7227C7.65625 10.3242 8.07812 9.97266 8.46484 10.3711C12.5078 14.4141 17.7109 11.0039 22.7734 15.668C23.1719 16.0195 23.6406 15.832 23.7109 15.4102C23.7695 15.0703 23.8047 14.5312 23.8047 14.0156C23.8047 8.29688 19.8203 5.54297 14.2188 5.54297C12.3438 5.54297 10.1523 6 8.42969 6C6.54297 6 4.42188 5.84766 2.73438 4.04297C2.25391 3.55078 1.52734 3.6211 1.33984 4.41797Z" fill="black"/>
</g>
<defs>
<clipPath id="clip0_1899_28937">
<rect width="25.3008" height="22.2305" fill="white" transform="translate(1 3)"/>
</clipPath>
</defs>
</svg>
