<svg viewBox="0 0 18 27" xmlns="http://www.w3.org/2000/svg">
<g id="lightswitch.on.fill">
<g id="Group">
<path id="primary" d="M3.80577 26.0316H13.8337C16.3364 26.0316 17.6395 24.7188 17.6395 22.197V3.84421C17.6395 1.31273 16.3364 0 13.8337 0H3.80577C1.29562 0 0 1.31273 0 3.84421V22.197C0 24.7188 1.29562 26.0316 3.80577 26.0316Z" fill="white"/>
<path id="secondary" d="M4.37594 11.3878C3.65828 11.3878 3.36719 11.1042 3.36719 10.3865V4.46039C3.36719 3.74062 3.65828 3.45703 4.37594 3.45703H13.2149C13.9422 3.45703 14.2333 3.74062 14.2333 4.46039V10.3865C14.2333 11.1042 13.9422 11.3878 13.2149 11.3878H4.37594Z" fill="#F8CE46"/>
</g>
</g>
</svg>
