<svg width="28" height="28" viewBox="0 0 28 28" fill="none" xmlns="http://www.w3.org/2000/svg">
<path d="M13.9531 25.9062C20.4922 25.9062 25.9062 20.4805 25.9062 13.9531C25.9062 7.41406 20.4805 2 13.9414 2C7.41406 2 2 7.41406 2 13.9531C2 20.4805 7.42578 25.9062 13.9531 25.9062ZM13.9648 20.2812C10.5078 20.2812 7.625 17.3984 7.625 13.9531C7.625 12.207 8.39844 10.4727 9.71094 9.3125C10.5312 8.52734 11.668 9.71094 10.8125 10.5078C9.85156 11.3984 9.3125 12.6172 9.3125 13.9531C9.3125 16.543 11.375 18.6172 13.9648 18.6172C16.5547 18.6172 18.6289 16.543 18.6289 13.9531C18.6172 12.6172 18.0664 11.3984 17.1172 10.5195C16.2617 9.72266 17.3984 8.53906 18.2305 9.3125C19.5312 10.4961 20.3047 12.2188 20.3047 13.9531C20.3047 17.3984 17.4219 20.2812 13.9648 20.2812ZM13.9648 14.2227C13.4961 14.2227 13.168 13.8828 13.168 13.4023V8.11719C13.168 7.625 13.4961 7.28516 13.9648 7.28516C14.4336 7.28516 14.7734 7.625 14.7734 8.11719V13.4023C14.7734 13.8828 14.4336 14.2227 13.9648 14.2227Z" fill="black"/>
</svg>
