<svg width="28" height="28" viewBox="0 0 28 28" fill="none" xmlns="http://www.w3.org/2000/svg">
<path d="M19.4609 14.1719C19.4609 13.8789 19.3438 13.6094 19.1211 13.3984L9.83984 4.30469C9.62891 4.10547 9.37109 4 9.06641 4C8.46875 4 8 4.45703 8 5.06641C8 5.35938 8.11719 5.62891 8.30469 5.82812L16.8359 14.1719L8.30469 22.5156C8.11719 22.7148 8 22.9727 8 23.2773C8 23.8867 8.46875 24.3438 9.06641 24.3438C9.37109 24.3438 9.62891 24.2383 9.83984 24.0273L19.1211 14.9453C19.3438 14.7227 19.4609 14.4648 19.4609 14.1719Z" fill="black"/>
</svg>
