<svg width="28" height="28" viewBox="0 0 28 28" fill="none" xmlns="http://www.w3.org/2000/svg">
<path d="M8 14.1719C8 14.4648 8.10547 14.7227 8.32812 14.9453L17.6211 24.0273C17.8203 24.2383 18.0781 24.3438 18.3828 24.3438C18.9922 24.3438 19.4609 23.8867 19.4609 23.2773C19.4609 22.9727 19.332 22.7148 19.1445 22.5156L10.6133 14.1719L19.1445 5.82812C19.332 5.62891 19.4609 5.35938 19.4609 5.06641C19.4609 4.45703 18.9922 4 18.3828 4C18.0781 4 17.8203 4.10547 17.6211 4.30469L8.32812 13.3984C8.10547 13.6094 8 13.8789 8 14.1719Z" fill="black"/>
</svg>
