<svg width="35" height="28" viewBox="0 0 35 28" fill="none" xmlns="http://www.w3.org/2000/svg">
<path d="M6.24609 21.8555H24.668C26.6719 21.8555 28.3594 21.668 29.5547 20.4727C30.75 19.2773 30.9258 17.6133 30.9258 15.6094V12.2461C30.9258 10.2422 30.75 8.57812 29.5547 7.38281C28.3594 6.1875 26.6719 6 24.668 6H6.22266C4.25391 6 2.56641 6.1875 1.37109 7.38281C0.175781 8.57812 0 10.2539 0 12.2109V15.6094C0 17.6133 0.175781 19.2773 1.37109 20.4727C2.56641 21.668 4.25391 21.8555 6.24609 21.8555ZM5.92969 19.9688C4.72266 19.9688 3.45703 19.8047 2.74219 19.1016C2.03906 18.3867 1.88672 17.1328 1.88672 15.9258V11.9531C1.88672 10.7227 2.03906 9.46875 2.74219 8.75391C3.45703 8.03906 4.73438 7.88672 5.96484 7.88672H24.9961C26.2031 7.88672 27.4688 8.05078 28.1719 8.75391C28.8867 9.46875 29.0391 10.7109 29.0391 11.918V15.9258C29.0391 17.1328 28.8867 18.3867 28.1719 19.1016C27.4688 19.8047 26.2031 19.9688 24.9961 19.9688H5.92969ZM32.5195 16.957C33.4453 16.8984 34.6875 15.7148 34.6875 13.9219C34.6875 12.1406 33.4453 10.957 32.5195 10.8984V16.957ZM5.30859 18.6094H19.5117C20.3203 18.6094 20.7891 18.4922 21.1172 18.1641C21.4453 17.8359 21.5742 17.3672 21.5742 16.5586V11.2969C21.5742 10.4883 21.4453 10.0195 21.1172 9.69141C20.7891 9.36328 20.3203 9.24609 19.5117 9.24609H5.34375C4.51172 9.24609 4.03125 9.36328 3.70312 9.69141C3.38672 10.0195 3.25781 10.5 3.25781 11.3203V16.5586C3.25781 17.3672 3.38672 17.8359 3.70312 18.1641C4.03125 18.4922 4.51172 18.6094 5.30859 18.6094Z" fill="black"/>
</svg>
