<svg xmlns="http://www.w3.org/2000/svg" width="512" height="576" viewBox="0 0 512 576">
  <path id="primary" d="M78,109H402c8.452,0,21.751-1.649,27,2,10.679,3.424,10.354,12.02,10.1,17.681C426.352,411.988,424.819,443.047,422,494c-4.6,32.114-7.018,46.895-35,57-18.942,6.841-51.157,3-75,3H176c-43.233,0-76.089,1.023-89-29-3.989-9.276-3.578-20.744-6-32C73.439,310.242,64.983,159.527,65,121c1.585-5.075,5.8-7.793,9-11C76.328,109.805,76.826,109.807,78,109Zm18,23c-6.037,8.824-6.268,7.24-6,23,2.127,39.483,15.076,302.82,16,338,2.241,9.453.789,21.686,14,29,8.337,4.616,14.517,8,39,8H337c14.707,0,34,2.068,43-4,11.836-7.978,15.12-20.11,16.049-34.225C393.355,532.71,399.455,392.7,412,138a19.893,19.893,0,0,1-6-6H96Zm148,65c38.119,0.161,44.83,21.848,59,45,4.076,6.66,10.5,25.209,18,27,1.916-2.424,5.075-3.636,8-5v49h-1c-5.7-5.645-33.681-21.27-42-24v-1h1c3.217-2.891,7.68-3.044,9-8-5.14-5.224-7.017-12.5-11-19-6.139-10.019-11.872-22.182-19-32-2.171-2.99-6.336-4.457-9-7a51.654,51.654,0,0,0-15,2c-7.131,11.325-15,23.2-22,35-5.466-2.924-19.55-8.309-21-15,8.342-6.785,14.076-24.9,21-34C225.775,202.407,236.029,202.594,244,197ZM210,384v24H167c-21.191-5.388-42.71-29.395-30-58,8.3-18.67,26.354-36.305,33-56-4.016-.921-8.592-3.326-10-7,16.147-4.01,27.206-18.318,43-23v49h-1c-2-2.041-8.6-5.79-10-5-5.2,5.113-7.045,12.537-11,19-6.321,10.33-14.594,21.059-20,32-2.234,4.522-2.882,12.548,0,17C168.137,387.023,191.905,384.251,210,384Zm135-66c5.954,2.417,6.794,9.746,10,15,10.3,16.868,22.518,32.651,8,55-2.819,4.34-4.934,9.058-9,12-17.2,12.443-57.912,8.291-87,8v1h-1c0.147,3.872.537,9.715-1,12-7.5-8.928-37.6-17.327-42-26,16.13-4.006,27.172-18.308,43-23-0.141,3.671-.435,8.875,1,11,3.49,2.193,12.716,1,18,1h45c0.86-.649,3.144-1.338,4-2,7.671-2.239,10.315-8.648,10-19-7.6-9.449-10.547-23.41-19-32v-1h1C331.235,325.155,340.565,323.588,345,318Z" fill="white"/>
</svg>
