<svg xmlns="http://www.w3.org/2000/svg" width="512" height="512" viewBox="0 0 1024 1024">
  <path id="primary" d="M702,854c-200.667-.667-316.333-0.667-379,0-206,0-227.258-319.9,6-323,40.667-1,164-1,373,0C919.42,532.152,918.078,850.836,702,854Zm20-248c-122.95,5.5-112.5,171.5,0,174C835,773.5,831.948,608.5,722,606Z"/>
  <path id="primary" d="M700,497c-200.667-.667-316.333-0.667-379,0-206,0-227.258-319.9,6-323,40.667-1,164-1,373,0C922.2,177.2,911.3,496.567,700,497Zm6-267c-140-1-233.5-1-382-1s-145.5,214-3,213,263.5,1,387,0C838,436,844.5,236,706,230Z"/>
  <path id="primary" d="M324,249c117.494,2.706,113.5,173,0,173C212.5,417,207.007,252.794,324,249Z"/>
</svg>
